solid OpenSCAD_Model
  facet normal -0.997859 0 0.0654033
    outer loop
      vertex 12.0538 3.6 5.69516
      vertex 12.1 50.6 6.4
      vertex 12.0538 50.6 5.69516
    endloop
  endfacet
  facet normal -0.997859 0 0.0654033
    outer loop
      vertex 12.1 50.6 6.4
      vertex 12.0538 3.6 5.69516
      vertex 12.1 3.6 6.4
    endloop
  endfacet
  facet normal 0.997859 -0 0.0654033
    outer loop
      vertex 1.3 3.6 6.4
      vertex 1.3462 50.6 5.69516
      vertex 1.3 50.6 6.4
    endloop
  endfacet
  facet normal 0.997859 0 0.0654033
    outer loop
      vertex 1.3462 50.6 5.69516
      vertex 1.3 3.6 6.4
      vertex 1.3462 3.6 5.69516
    endloop
  endfacet
  facet normal 0.065402 0 0.997859
    outer loop
      vertex 5.99516 50.6 1.0462
      vertex 6.7 3.6 1
      vertex 6.7 50.6 1
    endloop
  endfacet
  facet normal 0.065402 0 0.997859
    outer loop
      vertex 6.7 3.6 1
      vertex 5.99516 50.6 1.0462
      vertex 5.99516 3.6 1.0462
    endloop
  endfacet
  facet normal -0.659346 0 0.75184
    outer loop
      vertex 10.5184 50.6 2.58162
      vertex 10.1 3.601 2.21472
      vertex 10.5184 3.6 2.58162
    endloop
  endfacet
  facet normal -0.659346 -1.08337e-09 0.75184
    outer loop
      vertex 9.98731 50.6 2.11589
      vertex 10.1 3.601 2.21472
      vertex 10.5184 50.6 2.58162
    endloop
  endfacet
  facet normal -0.659346 0 0.75184
    outer loop
      vertex 10.1 3.601 2.21472
      vertex 9.98731 50.6 2.11589
      vertex 9.98731 3.601 2.11589
    endloop
  endfacet
  facet normal -0.659346 0 0.75184
    outer loop
      vertex 10.5184 3.6 2.58162
      vertex 10.1 3.601 2.21472
      vertex 10.1 3.6 2.21472
    endloop
  endfacet
  facet normal 0.75184 -0 0.659346
    outer loop
      vertex 2.41589 3.6 3.11269
      vertex 2.88162 50.6 2.58162
      vertex 2.41589 50.6 3.11269
    endloop
  endfacet
  facet normal 0.75184 0 0.659346
    outer loop
      vertex 2.88162 50.6 2.58162
      vertex 2.41589 3.6 3.11269
      vertex 2.88162 3.6 2.58162
    endloop
  endfacet
  facet normal 0.442289 0 0.896873
    outer loop
      vertex 4 50.6 1.72346
      vertex 4.63351 3.6 1.41105
      vertex 4.63351 50.6 1.41105
    endloop
  endfacet
  facet normal 0.442289 0 0.896873
    outer loop
      vertex 4.63351 3.6 1.41105
      vertex 4 50.6 1.72346
      vertex 4 3.6 1.72346
    endloop
  endfacet
  facet normal 0 1 0
    outer loop
      vertex 3.3 3.6 11.8
      vertex 1.3 3.6 6.4
      vertex 1.3 3.6 11.8
    endloop
  endfacet
  facet normal 0 1 -0
    outer loop
      vertex 3.3 3.6 2.21472
      vertex 1.3 3.6 6.4
      vertex 3.3 3.6 11.8
    endloop
  endfacet
  facet normal 0 1 0
    outer loop
      vertex 1.3 3.6 6.4
      vertex 3.3 3.6 2.21472
      vertex 1.3462 3.6 5.69516
    endloop
  endfacet
  facet normal 0 1 0
    outer loop
      vertex 1.3462 3.6 5.69516
      vertex 3.3 3.6 2.21472
      vertex 1.484 3.6 5.00238
    endloop
  endfacet
  facet normal 0 1 0
    outer loop
      vertex 1.484 3.6 5.00238
      vertex 3.3 3.6 2.21472
      vertex 1.71105 3.6 4.33351
    endloop
  endfacet
  facet normal 0 1 0
    outer loop
      vertex 1.71105 3.6 4.33351
      vertex 3.3 3.6 2.21472
      vertex 2.02346 3.6 3.7
    endloop
  endfacet
  facet normal 0 1 0
    outer loop
      vertex 2.02346 3.6 3.7
      vertex 3.3 3.6 2.21472
      vertex 2.41589 3.6 3.11269
    endloop
  endfacet
  facet normal 0 1 0
    outer loop
      vertex 2.41589 3.6 3.11269
      vertex 3.3 3.6 2.21472
      vertex 2.88162 3.6 2.58162
    endloop
  endfacet
  facet normal 0 1 -0
    outer loop
      vertex 22.9 3.6 6.4
      vertex 19.7 3.6 11.8
      vertex 22.9 3.6 11.8
    endloop
  endfacet
  facet normal 0 1 0
    outer loop
      vertex 19.7 3.6 1.9
      vertex 22.9 3.6 6.4
      vertex 22.8538 3.6 5.69516
    endloop
  endfacet
  facet normal 0 1 0
    outer loop
      vertex 19.7 3.6 1.9
      vertex 22.8538 3.6 5.69516
      vertex 22.716 3.6 5.00238
    endloop
  endfacet
  facet normal 0 1 0
    outer loop
      vertex 19.7 3.6 1.9
      vertex 22.716 3.6 5.00238
      vertex 22.4889 3.6 4.33351
    endloop
  endfacet
  facet normal 0 1 0
    outer loop
      vertex 19.7 3.6 1.9
      vertex 22.4889 3.6 4.33351
      vertex 22.1765 3.6 3.7
    endloop
  endfacet
  facet normal 0 1 0
    outer loop
      vertex 19.7 3.6 1.9
      vertex 22.1765 3.6 3.7
      vertex 21.7841 3.6 3.11269
    endloop
  endfacet
  facet normal 0 1 0
    outer loop
      vertex 19.7 3.6 1.9
      vertex 21.7841 3.6 3.11269
      vertex 21.3184 3.6 2.58162
    endloop
  endfacet
  facet normal 0 1 0
    outer loop
      vertex 19.7 3.6 1.9
      vertex 21.3184 3.6 2.58162
      vertex 20.7873 3.6 2.11589
    endloop
  endfacet
  facet normal 0 1 0
    outer loop
      vertex 22.9 3.6 6.4
      vertex 19.7 3.6 1.9
      vertex 19.7 3.6 11.8
    endloop
  endfacet
  facet normal 0 1 0
    outer loop
      vertex 19.5665 3.6 1.41105
      vertex 19.7 3.6 1.9
      vertex 20.2 3.6 1.72346
    endloop
  endfacet
  facet normal 0 1 -0
    outer loop
      vertex 20.2 3.6 1.72346
      vertex 19.7 3.6 1.9
      vertex 20.7873 3.6 2.11589
    endloop
  endfacet
  facet normal 0 1 0
    outer loop
      vertex 15.3 3.6 11.8
      vertex 12.1 3.6 6.4
      vertex 10.1 3.6 11.8
    endloop
  endfacet
  facet normal 0 1 -0
    outer loop
      vertex 15.3 3.6 1.9
      vertex 12.1 3.6 6.4
      vertex 15.3 3.6 11.8
    endloop
  endfacet
  facet normal 0 1 0
    outer loop
      vertex 12.1 3.6 6.4
      vertex 15.3 3.6 1.9
      vertex 12.1462 3.6 5.69516
    endloop
  endfacet
  facet normal 0 1 0
    outer loop
      vertex 12.1462 3.6 5.69516
      vertex 15.3 3.6 1.9
      vertex 12.284 3.6 5.00238
    endloop
  endfacet
  facet normal 0 1 0
    outer loop
      vertex 12.284 3.6 5.00238
      vertex 15.3 3.6 1.9
      vertex 12.5111 3.6 4.33351
    endloop
  endfacet
  facet normal 0 1 0
    outer loop
      vertex 12.5111 3.6 4.33351
      vertex 15.3 3.6 1.9
      vertex 12.8235 3.6 3.7
    endloop
  endfacet
  facet normal 0 1 0
    outer loop
      vertex 12.8235 3.6 3.7
      vertex 15.3 3.6 1.9
      vertex 13.2159 3.6 3.11269
    endloop
  endfacet
  facet normal 0 1 0
    outer loop
      vertex 13.2159 3.6 3.11269
      vertex 15.3 3.6 1.9
      vertex 13.6816 3.6 2.58162
    endloop
  endfacet
  facet normal 0 1 0
    outer loop
      vertex 13.6816 3.6 2.58162
      vertex 15.3 3.6 1.9
      vertex 14.2127 3.6 2.11589
    endloop
  endfacet
  facet normal 0 1 0
    outer loop
      vertex 15.3 3.6 1.9
      vertex 14.8 3.6 1.72346
      vertex 14.2127 3.6 2.11589
    endloop
  endfacet
  facet normal 0 1 0
    outer loop
      vertex 18.8976 3.6 1.184
      vertex 19.7 3.6 1.9
      vertex 19.5665 3.6 1.41105
    endloop
  endfacet
  facet normal 0 1 0
    outer loop
      vertex 18.2048 3.6 1.0462
      vertex 19.7 3.6 1.9
      vertex 18.8976 3.6 1.184
    endloop
  endfacet
  facet normal 0 1 0
    outer loop
      vertex 15.3 3.6 1.9
      vertex 15.4335 3.6 1.41105
      vertex 14.8 3.6 1.72346
    endloop
  endfacet
  facet normal 0 1 0
    outer loop
      vertex 17.5 3.6 1
      vertex 19.7 3.6 1.9
      vertex 18.2048 3.6 1.0462
    endloop
  endfacet
  facet normal 0 1 0
    outer loop
      vertex 15.3 3.6 1.9
      vertex 16.1024 3.6 1.184
      vertex 15.4335 3.6 1.41105
    endloop
  endfacet
  facet normal 0 1 0
    outer loop
      vertex 19.7 3.6 1.9
      vertex 17.5 3.6 1
      vertex 15.3 3.6 1.9
    endloop
  endfacet
  facet normal 0 1 0
    outer loop
      vertex 15.3 3.6 1.9
      vertex 16.7952 3.6 1.0462
      vertex 16.1024 3.6 1.184
    endloop
  endfacet
  facet normal 0 1 0
    outer loop
      vertex 15.3 3.6 1.9
      vertex 17.5 3.6 1
      vertex 16.7952 3.6 1.0462
    endloop
  endfacet
  facet normal 0 1 0
    outer loop
      vertex 10.1 3.6 2.21472
      vertex 12.1 3.6 6.4
      vertex 12.0538 3.6 5.69516
    endloop
  endfacet
  facet normal 0 1 0
    outer loop
      vertex 10.1 3.6 2.21472
      vertex 12.0538 3.6 5.69516
      vertex 11.916 3.6 5.00238
    endloop
  endfacet
  facet normal 0 1 0
    outer loop
      vertex 10.1 3.6 2.21472
      vertex 11.916 3.6 5.00238
      vertex 11.6889 3.6 4.33351
    endloop
  endfacet
  facet normal 0 1 0
    outer loop
      vertex 10.1 3.6 2.21472
      vertex 11.6889 3.6 4.33351
      vertex 11.3765 3.6 3.7
    endloop
  endfacet
  facet normal 0 1 0
    outer loop
      vertex 10.1 3.6 2.21472
      vertex 11.3765 3.6 3.7
      vertex 10.9841 3.6 3.11269
    endloop
  endfacet
  facet normal 0 1 0
    outer loop
      vertex 10.1 3.6 2.21472
      vertex 10.9841 3.6 3.11269
      vertex 10.5184 3.6 2.58162
    endloop
  endfacet
  facet normal 0 1 0
    outer loop
      vertex 12.1 3.6 6.4
      vertex 10.1 3.6 2.21472
      vertex 10.1 3.6 11.8
    endloop
  endfacet
  facet normal 0 1 0
    outer loop
      vertex 8.76649 3.6 1.41105
      vertex 9.66421 3.6 1.9
      vertex 9.4 3.6 1.72346
    endloop
  endfacet
  facet normal 0 1 0
    outer loop
      vertex 9.66421 3.6 1.9
      vertex 8.76649 3.6 1.41105
      vertex 3.73579 3.6 1.9
    endloop
  endfacet
  facet normal 0 1 -0
    outer loop
      vertex 4.63351 3.6 1.41105
      vertex 3.73579 3.6 1.9
      vertex 8.76649 3.6 1.41105
    endloop
  endfacet
  facet normal 0 1 0
    outer loop
      vertex 3.73579 3.6 1.9
      vertex 4.63351 3.6 1.41105
      vertex 4 3.6 1.72346
    endloop
  endfacet
  facet normal 0 1 -0
    outer loop
      vertex 8.09762 3.6 1.184
      vertex 4.63351 3.6 1.41105
      vertex 8.76649 3.6 1.41105
    endloop
  endfacet
  facet normal 0 1 0
    outer loop
      vertex 8.09762 3.6 1.184
      vertex 5.30238 3.6 1.184
      vertex 4.63351 3.6 1.41105
    endloop
  endfacet
  facet normal 0 1 -0
    outer loop
      vertex 7.40484 3.6 1.0462
      vertex 5.30238 3.6 1.184
      vertex 8.09762 3.6 1.184
    endloop
  endfacet
  facet normal 0 1 0
    outer loop
      vertex 7.40484 3.6 1.0462
      vertex 5.99516 3.6 1.0462
      vertex 5.30238 3.6 1.184
    endloop
  endfacet
  facet normal -0 1 0
    outer loop
      vertex 5.99516 3.6 1.0462
      vertex 7.40484 3.6 1.0462
      vertex 6.7 3.6 1
    endloop
  endfacet
  facet normal -0.896873 0 0.442289
    outer loop
      vertex 11.3765 3.6 3.7
      vertex 11.6889 50.6 4.33351
      vertex 11.3765 50.6 3.7
    endloop
  endfacet
  facet normal -0.896873 0 0.442289
    outer loop
      vertex 11.6889 50.6 4.33351
      vertex 11.3765 3.6 3.7
      vertex 11.6889 3.6 4.33351
    endloop
  endfacet
  facet normal -0.980785 0 0.195089
    outer loop
      vertex 11.916 3.6 5.00238
      vertex 12.0538 50.6 5.69516
      vertex 11.916 50.6 5.00238
    endloop
  endfacet
  facet normal -0.980785 0 0.195089
    outer loop
      vertex 12.0538 50.6 5.69516
      vertex 11.916 3.6 5.00238
      vertex 12.0538 3.6 5.69516
    endloop
  endfacet
  facet normal -0.83147 0 0.555569
    outer loop
      vertex 10.9841 3.6 3.11269
      vertex 11.3765 50.6 3.7
      vertex 10.9841 50.6 3.11269
    endloop
  endfacet
  facet normal -0.83147 0 0.555569
    outer loop
      vertex 11.3765 50.6 3.7
      vertex 10.9841 3.6 3.11269
      vertex 11.3765 3.6 3.7
    endloop
  endfacet
  facet normal -0.321439 0 0.94693
    outer loop
      vertex 8.09762 50.6 1.184
      vertex 8.76649 3.6 1.41105
      vertex 8.76649 50.6 1.41105
    endloop
  endfacet
  facet normal -0.321439 0 0.94693
    outer loop
      vertex 8.76649 3.6 1.41105
      vertex 8.09762 50.6 1.184
      vertex 8.09762 3.6 1.184
    endloop
  endfacet
  facet normal -0.195091 0 0.980785
    outer loop
      vertex 7.40484 50.6 1.0462
      vertex 8.09762 3.6 1.184
      vertex 8.09762 50.6 1.184
    endloop
  endfacet
  facet normal -0.195091 0 0.980785
    outer loop
      vertex 8.09762 3.6 1.184
      vertex 7.40484 50.6 1.0462
      vertex 7.40484 3.6 1.0462
    endloop
  endfacet
  facet normal -0.55557 0 0.83147
    outer loop
      vertex 9.98731 50.6 2.11589
      vertex 9.66421 3.601 1.9
      vertex 9.98731 3.601 2.11589
    endloop
  endfacet
  facet normal -0.55557 5.44115e-10 0.831469
    outer loop
      vertex 9.4 50.6 1.72346
      vertex 9.66421 3.601 1.9
      vertex 9.98731 50.6 2.11589
    endloop
  endfacet
  facet normal -0.55557 0 0.831469
    outer loop
      vertex 9.4 3.6 1.72346
      vertex 9.66421 3.601 1.9
      vertex 9.4 50.6 1.72346
    endloop
  endfacet
  facet normal -0.55557 0 0.831469
    outer loop
      vertex 9.66421 3.601 1.9
      vertex 9.4 3.6 1.72346
      vertex 9.66421 3.6 1.9
    endloop
  endfacet
  facet normal 0.896873 -0 0.442289
    outer loop
      vertex 1.71105 3.6 4.33351
      vertex 2.02346 50.6 3.7
      vertex 1.71105 50.6 4.33351
    endloop
  endfacet
  facet normal 0.896873 0 0.442289
    outer loop
      vertex 2.02346 50.6 3.7
      vertex 1.71105 3.6 4.33351
      vertex 2.02346 3.6 3.7
    endloop
  endfacet
  facet normal 0.831469 -0 0.55557
    outer loop
      vertex 2.02346 3.6 3.7
      vertex 2.41589 50.6 3.11269
      vertex 2.02346 50.6 3.7
    endloop
  endfacet
  facet normal 0.831469 0 0.55557
    outer loop
      vertex 2.41589 50.6 3.11269
      vertex 2.02346 3.6 3.7
      vertex 2.41589 3.6 3.11269
    endloop
  endfacet
  facet normal 0 -1 0
    outer loop
      vertex 1.3 50.6 6.4
      vertex 4.5 50.6 11.8
      vertex 1.3 50.6 11.8
    endloop
  endfacet
  facet normal 0 -1 0
    outer loop
      vertex 4.5 50.6 1.9
      vertex 1.3 50.6 6.4
      vertex 1.3462 50.6 5.69516
    endloop
  endfacet
  facet normal 0 -1 0
    outer loop
      vertex 4.5 50.6 1.9
      vertex 1.3462 50.6 5.69516
      vertex 1.484 50.6 5.00238
    endloop
  endfacet
  facet normal 0 -1 0
    outer loop
      vertex 4.5 50.6 1.9
      vertex 1.484 50.6 5.00238
      vertex 1.71105 50.6 4.33351
    endloop
  endfacet
  facet normal 0 -1 0
    outer loop
      vertex 4.5 50.6 1.9
      vertex 1.71105 50.6 4.33351
      vertex 2.02346 50.6 3.7
    endloop
  endfacet
  facet normal 0 -1 0
    outer loop
      vertex 4.5 50.6 1.9
      vertex 2.02346 50.6 3.7
      vertex 2.41589 50.6 3.11269
    endloop
  endfacet
  facet normal 0 -1 0
    outer loop
      vertex 4.5 50.6 1.9
      vertex 2.41589 50.6 3.11269
      vertex 2.88162 50.6 2.58162
    endloop
  endfacet
  facet normal 0 -1 0
    outer loop
      vertex 4.5 50.6 1.9
      vertex 2.88162 50.6 2.58162
      vertex 3.41269 50.6 2.11589
    endloop
  endfacet
  facet normal 0 -1 0
    outer loop
      vertex 1.3 50.6 6.4
      vertex 4.5 50.6 1.9
      vertex 4.5 50.6 11.8
    endloop
  endfacet
  facet normal 0 -1 0
    outer loop
      vertex 4.63351 50.6 1.41105
      vertex 4.5 50.6 1.9
      vertex 4 50.6 1.72346
    endloop
  endfacet
  facet normal 0 -1 0
    outer loop
      vertex 4 50.6 1.72346
      vertex 4.5 50.6 1.9
      vertex 3.41269 50.6 2.11589
    endloop
  endfacet
  facet normal 0 -1 0
    outer loop
      vertex 8.9 50.6 11.8
      vertex 12.1 50.6 6.4
      vertex 14.1 50.6 11.8
    endloop
  endfacet
  facet normal 0 -1 0
    outer loop
      vertex 8.9 50.6 1.9
      vertex 12.1 50.6 6.4
      vertex 8.9 50.6 11.8
    endloop
  endfacet
  facet normal 0 -1 0
    outer loop
      vertex 12.1 50.6 6.4
      vertex 8.9 50.6 1.9
      vertex 12.0538 50.6 5.69516
    endloop
  endfacet
  facet normal 0 -1 0
    outer loop
      vertex 12.0538 50.6 5.69516
      vertex 8.9 50.6 1.9
      vertex 11.916 50.6 5.00238
    endloop
  endfacet
  facet normal 0 -1 0
    outer loop
      vertex 11.916 50.6 5.00238
      vertex 8.9 50.6 1.9
      vertex 11.6889 50.6 4.33351
    endloop
  endfacet
  facet normal 0 -1 0
    outer loop
      vertex 11.6889 50.6 4.33351
      vertex 8.9 50.6 1.9
      vertex 11.3765 50.6 3.7
    endloop
  endfacet
  facet normal 0 -1 0
    outer loop
      vertex 11.3765 50.6 3.7
      vertex 8.9 50.6 1.9
      vertex 10.9841 50.6 3.11269
    endloop
  endfacet
  facet normal 0 -1 0
    outer loop
      vertex 10.9841 50.6 3.11269
      vertex 8.9 50.6 1.9
      vertex 10.5184 50.6 2.58162
    endloop
  endfacet
  facet normal 0 -1 0
    outer loop
      vertex 10.5184 50.6 2.58162
      vertex 8.9 50.6 1.9
      vertex 9.98731 50.6 2.11589
    endloop
  endfacet
  facet normal 0 -1 0
    outer loop
      vertex 8.9 50.6 1.9
      vertex 9.4 50.6 1.72346
      vertex 9.98731 50.6 2.11589
    endloop
  endfacet
  facet normal 0 -1 0
    outer loop
      vertex 5.30238 50.6 1.184
      vertex 4.5 50.6 1.9
      vertex 4.63351 50.6 1.41105
    endloop
  endfacet
  facet normal 0 -1 0
    outer loop
      vertex 5.99516 50.6 1.0462
      vertex 4.5 50.6 1.9
      vertex 5.30238 50.6 1.184
    endloop
  endfacet
  facet normal 0 -1 -0
    outer loop
      vertex 8.9 50.6 1.9
      vertex 8.76649 50.6 1.41105
      vertex 9.4 50.6 1.72346
    endloop
  endfacet
  facet normal 0 -1 0
    outer loop
      vertex 6.7 50.6 1
      vertex 4.5 50.6 1.9
      vertex 5.99516 50.6 1.0462
    endloop
  endfacet
  facet normal 0 -1 0
    outer loop
      vertex 8.9 50.6 1.9
      vertex 8.09762 50.6 1.184
      vertex 8.76649 50.6 1.41105
    endloop
  endfacet
  facet normal 0 -1 0
    outer loop
      vertex 4.5 50.6 1.9
      vertex 6.7 50.6 1
      vertex 8.9 50.6 1.9
    endloop
  endfacet
  facet normal 0 -1 0
    outer loop
      vertex 8.9 50.6 1.9
      vertex 7.40484 50.6 1.0462
      vertex 8.09762 50.6 1.184
    endloop
  endfacet
  facet normal 0 -1 0
    outer loop
      vertex 8.9 50.6 1.9
      vertex 6.7 50.6 1
      vertex 7.40484 50.6 1.0462
    endloop
  endfacet
  facet normal 0 -1 0
    outer loop
      vertex 14.1 50.6 2.21472
      vertex 12.1 50.6 6.4
      vertex 12.1462 50.6 5.69516
    endloop
  endfacet
  facet normal 0 -1 0
    outer loop
      vertex 14.1 50.6 2.21472
      vertex 12.1462 50.6 5.69516
      vertex 12.284 50.6 5.00238
    endloop
  endfacet
  facet normal 0 -1 0
    outer loop
      vertex 14.1 50.6 2.21472
      vertex 12.284 50.6 5.00238
      vertex 12.5111 50.6 4.33351
    endloop
  endfacet
  facet normal 0 -1 0
    outer loop
      vertex 14.1 50.6 2.21472
      vertex 12.5111 50.6 4.33351
      vertex 12.8235 50.6 3.7
    endloop
  endfacet
  facet normal 0 -1 0
    outer loop
      vertex 14.1 50.6 2.21472
      vertex 12.8235 50.6 3.7
      vertex 13.2159 50.6 3.11269
    endloop
  endfacet
  facet normal 0 -1 0
    outer loop
      vertex 14.1 50.6 2.21472
      vertex 13.2159 50.6 3.11269
      vertex 13.6816 50.6 2.58162
    endloop
  endfacet
  facet normal 0 -1 0
    outer loop
      vertex 12.1 50.6 6.4
      vertex 14.1 50.6 2.21472
      vertex 14.1 50.6 11.8
    endloop
  endfacet
  facet normal 0 -1 0
    outer loop
      vertex 20.9 50.6 11.8
      vertex 22.9 50.6 6.4
      vertex 22.9 50.6 11.8
    endloop
  endfacet
  facet normal 0 -1 0
    outer loop
      vertex 20.9 50.6 2.21472
      vertex 22.9 50.6 6.4
      vertex 20.9 50.6 11.8
    endloop
  endfacet
  facet normal 0 -1 0
    outer loop
      vertex 22.9 50.6 6.4
      vertex 20.9 50.6 2.21472
      vertex 22.8538 50.6 5.69516
    endloop
  endfacet
  facet normal 0 -1 0
    outer loop
      vertex 22.8538 50.6 5.69516
      vertex 20.9 50.6 2.21472
      vertex 22.716 50.6 5.00238
    endloop
  endfacet
  facet normal 0 -1 0
    outer loop
      vertex 22.716 50.6 5.00238
      vertex 20.9 50.6 2.21472
      vertex 22.4889 50.6 4.33351
    endloop
  endfacet
  facet normal 0 -1 0
    outer loop
      vertex 22.4889 50.6 4.33351
      vertex 20.9 50.6 2.21472
      vertex 22.1765 50.6 3.7
    endloop
  endfacet
  facet normal 0 -1 0
    outer loop
      vertex 22.1765 50.6 3.7
      vertex 20.9 50.6 2.21472
      vertex 21.7841 50.6 3.11269
    endloop
  endfacet
  facet normal 0 -1 0
    outer loop
      vertex 21.7841 50.6 3.11269
      vertex 20.9 50.6 2.21472
      vertex 21.3184 50.6 2.58162
    endloop
  endfacet
  facet normal 0 -1 0
    outer loop
      vertex 15.4335 50.6 1.41105
      vertex 14.5358 50.6 1.9
      vertex 14.8 50.6 1.72346
    endloop
  endfacet
  facet normal 0 -1 0
    outer loop
      vertex 14.5358 50.6 1.9
      vertex 15.4335 50.6 1.41105
      vertex 20.4642 50.6 1.9
    endloop
  endfacet
  facet normal 0 -1 0
    outer loop
      vertex 19.5665 50.6 1.41105
      vertex 20.4642 50.6 1.9
      vertex 15.4335 50.6 1.41105
    endloop
  endfacet
  facet normal 0 -1 0
    outer loop
      vertex 20.4642 50.6 1.9
      vertex 19.5665 50.6 1.41105
      vertex 20.2 50.6 1.72346
    endloop
  endfacet
  facet normal 0 -1 0
    outer loop
      vertex 16.1024 50.6 1.184
      vertex 19.5665 50.6 1.41105
      vertex 15.4335 50.6 1.41105
    endloop
  endfacet
  facet normal 0 -1 0
    outer loop
      vertex 16.1024 50.6 1.184
      vertex 18.8976 50.6 1.184
      vertex 19.5665 50.6 1.41105
    endloop
  endfacet
  facet normal 0 -1 0
    outer loop
      vertex 16.7952 50.6 1.0462
      vertex 18.8976 50.6 1.184
      vertex 16.1024 50.6 1.184
    endloop
  endfacet
  facet normal 0 -1 0
    outer loop
      vertex 16.7952 50.6 1.0462
      vertex 18.2048 50.6 1.0462
      vertex 18.8976 50.6 1.184
    endloop
  endfacet
  facet normal -0 -1 0
    outer loop
      vertex 18.2048 50.6 1.0462
      vertex 16.7952 50.6 1.0462
      vertex 17.5 50.6 1
    endloop
  endfacet
  facet normal 0.55557 0 0.831469
    outer loop
      vertex 4 50.6 1.72346
      vertex 3.73579 3.601 1.9
      vertex 4 3.6 1.72346
    endloop
  endfacet
  facet normal 0.55557 5.44115e-10 0.831469
    outer loop
      vertex 3.41269 50.6 2.11589
      vertex 3.73579 3.601 1.9
      vertex 4 50.6 1.72346
    endloop
  endfacet
  facet normal 0.55557 0 0.83147
    outer loop
      vertex 3.73579 3.601 1.9
      vertex 3.41269 50.6 2.11589
      vertex 3.41269 3.601 2.11589
    endloop
  endfacet
  facet normal 0.55557 0 0.831469
    outer loop
      vertex 4 3.6 1.72346
      vertex 3.73579 3.601 1.9
      vertex 3.73579 3.6 1.9
    endloop
  endfacet
  facet normal 0.321439 0 0.94693
    outer loop
      vertex 4.63351 50.6 1.41105
      vertex 5.30238 3.6 1.184
      vertex 5.30238 50.6 1.184
    endloop
  endfacet
  facet normal 0.321439 0 0.94693
    outer loop
      vertex 5.30238 3.6 1.184
      vertex 4.63351 50.6 1.41105
      vertex 4.63351 3.6 1.41105
    endloop
  endfacet
  facet normal -0.94693 0 0.321441
    outer loop
      vertex 11.6889 3.6 4.33351
      vertex 11.916 50.6 5.00238
      vertex 11.6889 50.6 4.33351
    endloop
  endfacet
  facet normal -0.94693 0 0.321441
    outer loop
      vertex 11.916 50.6 5.00238
      vertex 11.6889 3.6 4.33351
      vertex 11.916 3.6 5.00238
    endloop
  endfacet
  facet normal -0.75184 0 0.659346
    outer loop
      vertex 10.5184 3.6 2.58162
      vertex 10.9841 50.6 3.11269
      vertex 10.5184 50.6 2.58162
    endloop
  endfacet
  facet normal -0.75184 0 0.659346
    outer loop
      vertex 10.9841 50.6 3.11269
      vertex 10.5184 3.6 2.58162
      vertex 10.9841 3.6 3.11269
    endloop
  endfacet
  facet normal -0.065402 0 0.997859
    outer loop
      vertex 6.7 50.6 1
      vertex 7.40484 3.6 1.0462
      vertex 7.40484 50.6 1.0462
    endloop
  endfacet
  facet normal -0.065402 0 0.997859
    outer loop
      vertex 7.40484 3.6 1.0462
      vertex 6.7 50.6 1
      vertex 6.7 3.6 1
    endloop
  endfacet
  facet normal -0.442289 0 0.896873
    outer loop
      vertex 8.76649 50.6 1.41105
      vertex 9.4 3.6 1.72346
      vertex 9.4 50.6 1.72346
    endloop
  endfacet
  facet normal -0.442289 0 0.896873
    outer loop
      vertex 9.4 3.6 1.72346
      vertex 8.76649 50.6 1.41105
      vertex 8.76649 3.6 1.41105
    endloop
  endfacet
  facet normal 0.94693 -0 0.32144
    outer loop
      vertex 1.484 3.6 5.00238
      vertex 1.71105 50.6 4.33351
      vertex 1.484 50.6 5.00238
    endloop
  endfacet
  facet normal 0.94693 0 0.32144
    outer loop
      vertex 1.71105 50.6 4.33351
      vertex 1.484 3.6 5.00238
      vertex 1.71105 3.6 4.33351
    endloop
  endfacet
  facet normal 0.980785 -0 0.195091
    outer loop
      vertex 1.3462 3.6 5.69516
      vertex 1.484 50.6 5.00238
      vertex 1.3462 50.6 5.69516
    endloop
  endfacet
  facet normal 0.980785 0 0.195091
    outer loop
      vertex 1.484 50.6 5.00238
      vertex 1.3462 3.6 5.69516
      vertex 1.484 3.6 5.00238
    endloop
  endfacet
  facet normal 0.659346 0 0.75184
    outer loop
      vertex 3.41269 50.6 2.11589
      vertex 3.3 3.601 2.21472
      vertex 3.41269 3.601 2.11589
    endloop
  endfacet
  facet normal 0.659346 7.9346e-10 0.75184
    outer loop
      vertex 2.88162 50.6 2.58162
      vertex 3.3 3.601 2.21472
      vertex 3.41269 50.6 2.11589
    endloop
  endfacet
  facet normal 0.659346 -0 0.75184
    outer loop
      vertex 2.88162 3.6 2.58162
      vertex 3.3 3.601 2.21472
      vertex 2.88162 50.6 2.58162
    endloop
  endfacet
  facet normal 0.659346 0 0.75184
    outer loop
      vertex 3.3 3.601 2.21472
      vertex 2.88162 3.6 2.58162
      vertex 3.3 3.6 2.21472
    endloop
  endfacet
  facet normal 0.195091 0 0.980785
    outer loop
      vertex 5.30238 50.6 1.184
      vertex 5.99516 3.6 1.0462
      vertex 5.99516 50.6 1.0462
    endloop
  endfacet
  facet normal 0.195091 0 0.980785
    outer loop
      vertex 5.99516 3.6 1.0462
      vertex 5.30238 50.6 1.184
      vertex 5.30238 3.6 1.184
    endloop
  endfacet
  facet normal -0.997859 0 0.0654033
    outer loop
      vertex 22.8538 3.6 5.69516
      vertex 22.9 50.6 6.4
      vertex 22.8538 50.6 5.69516
    endloop
  endfacet
  facet normal -0.997859 0 0.0654033
    outer loop
      vertex 22.9 50.6 6.4
      vertex 22.8538 3.6 5.69516
      vertex 22.9 3.6 6.4
    endloop
  endfacet
  facet normal 0.997859 -0 0.0654033
    outer loop
      vertex 12.1 3.6 6.4
      vertex 12.1462 50.6 5.69516
      vertex 12.1 50.6 6.4
    endloop
  endfacet
  facet normal 0.997859 0 0.0654033
    outer loop
      vertex 12.1462 50.6 5.69516
      vertex 12.1 3.6 6.4
      vertex 12.1462 3.6 5.69516
    endloop
  endfacet
  facet normal 0.065402 0 0.997859
    outer loop
      vertex 16.7952 50.6 1.0462
      vertex 17.5 3.6 1
      vertex 17.5 50.6 1
    endloop
  endfacet
  facet normal 0.065402 0 0.997859
    outer loop
      vertex 17.5 3.6 1
      vertex 16.7952 50.6 1.0462
      vertex 16.7952 3.6 1.0462
    endloop
  endfacet
  facet normal -0.659346 0 0.75184
    outer loop
      vertex 20.9 50.599 2.21472
      vertex 21.3184 50.6 2.58162
      vertex 20.9 50.6 2.21472
    endloop
  endfacet
  facet normal -0.659346 0 0.75184
    outer loop
      vertex 21.3184 50.6 2.58162
      vertex 20.9 50.599 2.21472
      vertex 21.3184 3.6 2.58162
    endloop
  endfacet
  facet normal -0.659346 5.10558e-09 0.75184
    outer loop
      vertex 20.7873 50.599 2.11589
      vertex 21.3184 3.6 2.58162
      vertex 20.9 50.599 2.21472
    endloop
  endfacet
  facet normal -0.659346 0 0.75184
    outer loop
      vertex 21.3184 3.6 2.58162
      vertex 20.7873 50.599 2.11589
      vertex 20.7873 3.6 2.11589
    endloop
  endfacet
  facet normal 0.659346 0 0.75184
    outer loop
      vertex 14.1 50.6 2.21472
      vertex 13.6816 50.6 2.58162
      vertex 14.1 50.599 2.21472
    endloop
  endfacet
  facet normal 0.659346 0 0.75184
    outer loop
      vertex 14.1 50.599 2.21472
      vertex 14.2127 3.6 2.11589
      vertex 14.2127 50.599 2.11589
    endloop
  endfacet
  facet normal 0.659346 1.37517e-09 0.75184
    outer loop
      vertex 13.6816 50.6 2.58162
      vertex 14.2127 3.6 2.11589
      vertex 14.1 50.599 2.21472
    endloop
  endfacet
  facet normal 0.659346 0 0.75184
    outer loop
      vertex 14.2127 3.6 2.11589
      vertex 13.6816 50.6 2.58162
      vertex 13.6816 3.6 2.58162
    endloop
  endfacet
  facet normal 0.442289 0 0.896873
    outer loop
      vertex 14.8 50.6 1.72346
      vertex 15.4335 3.6 1.41105
      vertex 15.4335 50.6 1.41105
    endloop
  endfacet
  facet normal 0.442289 0 0.896873
    outer loop
      vertex 15.4335 3.6 1.41105
      vertex 14.8 50.6 1.72346
      vertex 14.8 3.6 1.72346
    endloop
  endfacet
  facet normal -0.896873 0 0.442289
    outer loop
      vertex 22.1765 3.6 3.7
      vertex 22.4889 50.6 4.33351
      vertex 22.1765 50.6 3.7
    endloop
  endfacet
  facet normal -0.896873 0 0.442289
    outer loop
      vertex 22.4889 50.6 4.33351
      vertex 22.1765 3.6 3.7
      vertex 22.4889 3.6 4.33351
    endloop
  endfacet
  facet normal -0.321439 0 0.94693
    outer loop
      vertex 18.8976 50.6 1.184
      vertex 19.5665 3.6 1.41105
      vertex 19.5665 50.6 1.41105
    endloop
  endfacet
  facet normal -0.321439 0 0.94693
    outer loop
      vertex 19.5665 3.6 1.41105
      vertex 18.8976 50.6 1.184
      vertex 18.8976 3.6 1.184
    endloop
  endfacet
  facet normal -0.195091 0 0.980785
    outer loop
      vertex 18.2048 50.6 1.0462
      vertex 18.8976 3.6 1.184
      vertex 18.8976 50.6 1.184
    endloop
  endfacet
  facet normal -0.195091 0 0.980785
    outer loop
      vertex 18.8976 3.6 1.184
      vertex 18.2048 50.6 1.0462
      vertex 18.2048 3.6 1.0462
    endloop
  endfacet
  facet normal -0.555572 0 0.831469
    outer loop
      vertex 20.4642 50.6 1.9
      vertex 20.2 50.6 1.72346
      vertex 20.4642 50.599 1.9
    endloop
  endfacet
  facet normal -0.55557 0 0.83147
    outer loop
      vertex 20.4642 50.599 1.9
      vertex 20.7873 3.6 2.11589
      vertex 20.7873 50.599 2.11589
    endloop
  endfacet
  facet normal -0.555572 0 0.831469
    outer loop
      vertex 20.2 3.6 1.72346
      vertex 20.4642 50.599 1.9
      vertex 20.2 50.6 1.72346
    endloop
  endfacet
  facet normal -0.555571 -6.74603e-09 0.831469
    outer loop
      vertex 20.4642 50.599 1.9
      vertex 20.2 3.6 1.72346
      vertex 20.7873 3.6 2.11589
    endloop
  endfacet
  facet normal 0.896873 -0 0.442289
    outer loop
      vertex 12.5111 3.6 4.33351
      vertex 12.8235 50.6 3.7
      vertex 12.5111 50.6 4.33351
    endloop
  endfacet
  facet normal 0.896873 0 0.442289
    outer loop
      vertex 12.8235 50.6 3.7
      vertex 12.5111 3.6 4.33351
      vertex 12.8235 3.6 3.7
    endloop
  endfacet
  facet normal 0.55557 -0 0.831469
    outer loop
      vertex 14.5358 50.599 1.9
      vertex 14.8 50.6 1.72346
      vertex 14.5358 50.6 1.9
    endloop
  endfacet
  facet normal 0.55557 0 0.831469
    outer loop
      vertex 14.8 50.6 1.72346
      vertex 14.5358 50.599 1.9
      vertex 14.8 3.6 1.72346
    endloop
  endfacet
  facet normal 0.55557 -9.89044e-10 0.83147
    outer loop
      vertex 14.2127 50.599 2.11589
      vertex 14.8 3.6 1.72346
      vertex 14.5358 50.599 1.9
    endloop
  endfacet
  facet normal 0.55557 0 0.831469
    outer loop
      vertex 14.8 3.6 1.72346
      vertex 14.2127 50.599 2.11589
      vertex 14.2127 3.6 2.11589
    endloop
  endfacet
  facet normal 0.321439 0 0.94693
    outer loop
      vertex 15.4335 50.6 1.41105
      vertex 16.1024 3.6 1.184
      vertex 16.1024 50.6 1.184
    endloop
  endfacet
  facet normal 0.321439 0 0.94693
    outer loop
      vertex 16.1024 3.6 1.184
      vertex 15.4335 50.6 1.41105
      vertex 15.4335 3.6 1.41105
    endloop
  endfacet
  facet normal -0.94693 0 0.321441
    outer loop
      vertex 22.4889 3.6 4.33351
      vertex 22.716 50.6 5.00238
      vertex 22.4889 50.6 4.33351
    endloop
  endfacet
  facet normal -0.94693 0 0.321441
    outer loop
      vertex 22.716 50.6 5.00238
      vertex 22.4889 3.6 4.33351
      vertex 22.716 3.6 5.00238
    endloop
  endfacet
  facet normal -0.980785 0 0.195089
    outer loop
      vertex 22.716 3.6 5.00238
      vertex 22.8538 50.6 5.69516
      vertex 22.716 50.6 5.00238
    endloop
  endfacet
  facet normal -0.980785 0 0.195089
    outer loop
      vertex 22.8538 50.6 5.69516
      vertex 22.716 3.6 5.00238
      vertex 22.8538 3.6 5.69516
    endloop
  endfacet
  facet normal -0.75184 0 0.659345
    outer loop
      vertex 21.3184 3.6 2.58162
      vertex 21.7841 50.6 3.11269
      vertex 21.3184 50.6 2.58162
    endloop
  endfacet
  facet normal -0.75184 0 0.659345
    outer loop
      vertex 21.7841 50.6 3.11269
      vertex 21.3184 3.6 2.58162
      vertex 21.7841 3.6 3.11269
    endloop
  endfacet
  facet normal -0.831469 0 0.55557
    outer loop
      vertex 21.7841 3.6 3.11269
      vertex 22.1765 50.6 3.7
      vertex 21.7841 50.6 3.11269
    endloop
  endfacet
  facet normal -0.831469 0 0.55557
    outer loop
      vertex 22.1765 50.6 3.7
      vertex 21.7841 3.6 3.11269
      vertex 22.1765 3.6 3.7
    endloop
  endfacet
  facet normal -0.065402 0 0.997859
    outer loop
      vertex 17.5 50.6 1
      vertex 18.2048 3.6 1.0462
      vertex 18.2048 50.6 1.0462
    endloop
  endfacet
  facet normal -0.065402 0 0.997859
    outer loop
      vertex 18.2048 3.6 1.0462
      vertex 17.5 50.6 1
      vertex 17.5 3.6 1
    endloop
  endfacet
  facet normal -0.442288 0 0.896873
    outer loop
      vertex 19.5665 50.6 1.41105
      vertex 20.2 3.6 1.72346
      vertex 20.2 50.6 1.72346
    endloop
  endfacet
  facet normal -0.442288 0 0.896873
    outer loop
      vertex 20.2 3.6 1.72346
      vertex 19.5665 50.6 1.41105
      vertex 19.5665 3.6 1.41105
    endloop
  endfacet
  facet normal 0.831469 -0 0.55557
    outer loop
      vertex 12.8235 3.6 3.7
      vertex 13.2159 50.6 3.11269
      vertex 12.8235 50.6 3.7
    endloop
  endfacet
  facet normal 0.831469 0 0.55557
    outer loop
      vertex 13.2159 50.6 3.11269
      vertex 12.8235 3.6 3.7
      vertex 13.2159 3.6 3.11269
    endloop
  endfacet
  facet normal 0.75184 -0 0.659345
    outer loop
      vertex 13.2159 3.6 3.11269
      vertex 13.6816 50.6 2.58162
      vertex 13.2159 50.6 3.11269
    endloop
  endfacet
  facet normal 0.75184 0 0.659345
    outer loop
      vertex 13.6816 50.6 2.58162
      vertex 13.2159 3.6 3.11269
      vertex 13.6816 3.6 2.58162
    endloop
  endfacet
  facet normal 0.94693 -0 0.32144
    outer loop
      vertex 12.284 3.6 5.00238
      vertex 12.5111 50.6 4.33351
      vertex 12.284 50.6 5.00238
    endloop
  endfacet
  facet normal 0.94693 0 0.32144
    outer loop
      vertex 12.5111 50.6 4.33351
      vertex 12.284 3.6 5.00238
      vertex 12.5111 3.6 4.33351
    endloop
  endfacet
  facet normal 0.980785 -0 0.195091
    outer loop
      vertex 12.1462 3.6 5.69516
      vertex 12.284 50.6 5.00238
      vertex 12.1462 50.6 5.69516
    endloop
  endfacet
  facet normal 0.980785 0 0.195091
    outer loop
      vertex 12.284 50.6 5.00238
      vertex 12.1462 3.6 5.69516
      vertex 12.284 3.6 5.00238
    endloop
  endfacet
  facet normal 0.195091 0 0.980785
    outer loop
      vertex 16.1024 50.6 1.184
      vertex 16.7952 3.6 1.0462
      vertex 16.7952 50.6 1.0462
    endloop
  endfacet
  facet normal 0.195091 0 0.980785
    outer loop
      vertex 16.7952 3.6 1.0462
      vertex 16.1024 50.6 1.184
      vertex 16.1024 3.6 1.184
    endloop
  endfacet
  facet normal 1 -0 0
    outer loop
      vertex 1.3 1.3 11.8
      vertex 1.3 2.3 1.9
      vertex 1.3 2.3 11.8
    endloop
  endfacet
  facet normal 1 0 0
    outer loop
      vertex 1.3 2.3 1.9
      vertex 1.3 1.3 11.8
      vertex 1.3 1.3 1.9
    endloop
  endfacet
  facet normal -1 0 0
    outer loop
      vertex 22.9 1.3 1.9
      vertex 22.9 2.3 11.8
      vertex 22.9 2.3 1.9
    endloop
  endfacet
  facet normal -1 -0 0
    outer loop
      vertex 22.9 2.3 11.8
      vertex 22.9 1.3 1.9
      vertex 22.9 1.3 11.8
    endloop
  endfacet
  facet normal 0 0 1
    outer loop
      vertex 3.73579 3.601 1.9
      vertex 3.3 3.601 1.9
      vertex 3.73579 3.6 1.9
    endloop
  endfacet
  facet normal 0 0 1
    outer loop
      vertex 9.66421 3.6 1.9
      vertex 10.1 3.601 1.9
      vertex 9.66421 3.601 1.9
    endloop
  endfacet
  facet normal -0 0 1
    outer loop
      vertex 10.1 2.3 1.9
      vertex 11.45 1.3 1.9
      vertex 11.45 2.3 1.9
    endloop
  endfacet
  facet normal 0 0 1
    outer loop
      vertex 10.1 3.601 1.9
      vertex 9.66421 3.6 1.9
      vertex 10.1 2.3 1.9
    endloop
  endfacet
  facet normal -0 0 1
    outer loop
      vertex 3.73579 3.6 1.9
      vertex 10.1 2.3 1.9
      vertex 9.66421 3.6 1.9
    endloop
  endfacet
  facet normal 0 0 1
    outer loop
      vertex 3.3 2.3 1.9
      vertex 10.1 2.3 1.9
      vertex 3.73579 3.6 1.9
    endloop
  endfacet
  facet normal 0 0 1
    outer loop
      vertex 3.3 2.3 1.9
      vertex 3.73579 3.6 1.9
      vertex 3.3 3.601 1.9
    endloop
  endfacet
  facet normal 0 0 1
    outer loop
      vertex 10.1 2.3 1.9
      vertex 3.3 2.3 1.9
      vertex 11.45 1.3 1.9
    endloop
  endfacet
  facet normal 0 0 1
    outer loop
      vertex 1.3 1.3 1.9
      vertex 3.3 2.3 1.9
      vertex 1.3 2.3 1.9
    endloop
  endfacet
  facet normal 0 0 1
    outer loop
      vertex 3.3 2.3 1.9
      vertex 1.3 1.3 1.9
      vertex 11.45 1.3 1.9
    endloop
  endfacet
  facet normal 0 0 1
    outer loop
      vertex 19.7 3.6 1.9
      vertex 15.3 3.6 1.9
      vertex 19.7 2.3 1.9
    endloop
  endfacet
  facet normal -0 0 1
    outer loop
      vertex 19.7 2.3 1.9
      vertex 22.9 1.3 1.9
      vertex 22.9 2.3 1.9
    endloop
  endfacet
  facet normal 0 0 1
    outer loop
      vertex 15.3 2.3 1.9
      vertex 19.7 2.3 1.9
      vertex 15.3 3.6 1.9
    endloop
  endfacet
  facet normal 0 0 1
    outer loop
      vertex 12.75 1.3 1.9
      vertex 19.7 2.3 1.9
      vertex 15.3 2.3 1.9
    endloop
  endfacet
  facet normal 0 0 1
    outer loop
      vertex 12.75 1.3 1.9
      vertex 15.3 2.3 1.9
      vertex 12.75 2.3 1.9
    endloop
  endfacet
  facet normal 0 0 1
    outer loop
      vertex 19.7 2.3 1.9
      vertex 12.75 1.3 1.9
      vertex 22.9 1.3 1.9
    endloop
  endfacet
  facet normal 0 1 -0
    outer loop
      vertex 11.45 1.3 1.9
      vertex 1.3 1.3 11.8
      vertex 11.45 1.3 11.8
    endloop
  endfacet
  facet normal 0 1 0
    outer loop
      vertex 1.3 1.3 11.8
      vertex 11.45 1.3 1.9
      vertex 1.3 1.3 1.9
    endloop
  endfacet
  facet normal 0 1 -0
    outer loop
      vertex 22.9 1.3 1.9
      vertex 12.75 1.3 11.8
      vertex 22.9 1.3 11.8
    endloop
  endfacet
  facet normal 0 1 0
    outer loop
      vertex 12.75 1.3 11.8
      vertex 22.9 1.3 1.9
      vertex 12.75 1.3 1.9
    endloop
  endfacet
  facet normal 0 -1 0
    outer loop
      vertex 1.3 2.3 1.9
      vertex 3.3 2.3 11.8
      vertex 1.3 2.3 11.8
    endloop
  endfacet
  facet normal 0 -1 -0
    outer loop
      vertex 3.3 2.3 11.8
      vertex 1.3 2.3 1.9
      vertex 3.3 2.3 1.9
    endloop
  endfacet
  facet normal 0 -1 0
    outer loop
      vertex 19.7 2.3 1.9
      vertex 22.9 2.3 11.8
      vertex 19.7 2.3 11.8
    endloop
  endfacet
  facet normal 0 -1 -0
    outer loop
      vertex 22.9 2.3 11.8
      vertex 19.7 2.3 1.9
      vertex 22.9 2.3 1.9
    endloop
  endfacet
  facet normal 0 -1 0
    outer loop
      vertex 10.1 2.3 1.9
      vertex 11.45 2.3 11.8
      vertex 10.1 2.3 11.8
    endloop
  endfacet
  facet normal 0 -1 -0
    outer loop
      vertex 11.45 2.3 11.8
      vertex 10.1 2.3 1.9
      vertex 11.45 2.3 1.9
    endloop
  endfacet
  facet normal 0 -1 0
    outer loop
      vertex 12.75 2.3 1.9
      vertex 15.3 2.3 11.8
      vertex 12.75 2.3 11.8
    endloop
  endfacet
  facet normal 0 -1 -0
    outer loop
      vertex 15.3 2.3 11.8
      vertex 12.75 2.3 1.9
      vertex 15.3 2.3 1.9
    endloop
  endfacet
  facet normal 1 -0 0
    outer loop
      vertex 1.3 51.9 11.8
      vertex 1.3 52.9 1.9
      vertex 1.3 52.9 11.8
    endloop
  endfacet
  facet normal 1 0 0
    outer loop
      vertex 1.3 52.9 1.9
      vertex 1.3 51.9 11.8
      vertex 1.3 51.9 1.9
    endloop
  endfacet
  facet normal -1 0 0
    outer loop
      vertex 22.9 51.9 1.9
      vertex 22.9 52.9 11.8
      vertex 22.9 52.9 1.9
    endloop
  endfacet
  facet normal -1 -0 0
    outer loop
      vertex 22.9 52.9 11.8
      vertex 22.9 51.9 1.9
      vertex 22.9 51.9 11.8
    endloop
  endfacet
  facet normal 0 0 1
    outer loop
      vertex 22.9 52.9 1.9
      vertex 20.9 51.9 1.9
      vertex 22.9 51.9 1.9
    endloop
  endfacet
  facet normal 0 0 1
    outer loop
      vertex 20.9 51.9 1.9
      vertex 20.4642 50.6 1.9
      vertex 20.9 50.599 1.9
    endloop
  endfacet
  facet normal 0 0 1
    outer loop
      vertex 20.9 51.9 1.9
      vertex 14.5358 50.6 1.9
      vertex 20.4642 50.6 1.9
    endloop
  endfacet
  facet normal 0 0 1
    outer loop
      vertex 14.1 51.9 1.9
      vertex 20.9 51.9 1.9
      vertex 22.9 52.9 1.9
    endloop
  endfacet
  facet normal 0 0 1
    outer loop
      vertex 14.1 50.599 1.9
      vertex 14.5358 50.6 1.9
      vertex 14.1 51.9 1.9
    endloop
  endfacet
  facet normal 0 0 1
    outer loop
      vertex 20.9 51.9 1.9
      vertex 14.1 51.9 1.9
      vertex 14.5358 50.6 1.9
    endloop
  endfacet
  facet normal -0 0 1
    outer loop
      vertex 1.3 52.9 1.9
      vertex 14.1 51.9 1.9
      vertex 22.9 52.9 1.9
    endloop
  endfacet
  facet normal 0 0 1
    outer loop
      vertex 8.9 51.9 1.9
      vertex 4.5 51.9 1.9
      vertex 8.9 50.6 1.9
    endloop
  endfacet
  facet normal 0 0 1
    outer loop
      vertex 14.1 51.9 1.9
      vertex 1.3 52.9 1.9
      vertex 8.9 51.9 1.9
    endloop
  endfacet
  facet normal 0 0 1
    outer loop
      vertex 8.9 51.9 1.9
      vertex 1.3 52.9 1.9
      vertex 4.5 51.9 1.9
    endloop
  endfacet
  facet normal 0 0 1
    outer loop
      vertex 4.5 51.9 1.9
      vertex 1.3 52.9 1.9
      vertex 1.3 51.9 1.9
    endloop
  endfacet
  facet normal 0 0 1
    outer loop
      vertex 20.9 50.599 1.9
      vertex 20.4642 50.6 1.9
      vertex 20.4642 50.599 1.9
    endloop
  endfacet
  facet normal 0 0 1
    outer loop
      vertex 14.5358 50.6 1.9
      vertex 14.1 50.599 1.9
      vertex 14.5358 50.599 1.9
    endloop
  endfacet
  facet normal 0 0 1
    outer loop
      vertex 8.9 50.6 1.9
      vertex 4.5 51.9 1.9
      vertex 4.5 50.6 1.9
    endloop
  endfacet
  facet normal 0 1 -0
    outer loop
      vertex 4.5 51.9 1.9
      vertex 1.3 51.9 11.8
      vertex 4.5 51.9 11.8
    endloop
  endfacet
  facet normal 0 1 0
    outer loop
      vertex 1.3 51.9 11.8
      vertex 4.5 51.9 1.9
      vertex 1.3 51.9 1.9
    endloop
  endfacet
  facet normal 0 1 -0
    outer loop
      vertex 22.9 51.9 1.9
      vertex 20.9 51.9 11.8
      vertex 22.9 51.9 11.8
    endloop
  endfacet
  facet normal 0 1 0
    outer loop
      vertex 20.9 51.9 11.8
      vertex 22.9 51.9 1.9
      vertex 20.9 51.9 1.9
    endloop
  endfacet
  facet normal 0 1 -0
    outer loop
      vertex 14.1 51.9 1.9
      vertex 8.9 51.9 11.8
      vertex 14.1 51.9 11.8
    endloop
  endfacet
  facet normal 0 1 0
    outer loop
      vertex 8.9 51.9 11.8
      vertex 14.1 51.9 1.9
      vertex 8.9 51.9 1.9
    endloop
  endfacet
  facet normal 0 -1 0
    outer loop
      vertex 1.3 52.9 1.9
      vertex 22.9 52.9 11.8
      vertex 1.3 52.9 11.8
    endloop
  endfacet
  facet normal 0 -1 -0
    outer loop
      vertex 22.9 52.9 11.8
      vertex 1.3 52.9 1.9
      vertex 22.9 52.9 1.9
    endloop
  endfacet
  facet normal -1 0 0
    outer loop
      vertex 0 0 0
      vertex 0 54.2 11.8
      vertex 0 54.2 0
    endloop
  endfacet
  facet normal -1 -0 0
    outer loop
      vertex 0 54.2 11.8
      vertex 0 0 0
      vertex 0 0 11.8
    endloop
  endfacet
  facet normal 0 0 1
    outer loop
      vertex 15.3 3.6 11.8
      vertex 12.75 2.3 11.8
      vertex 15.3 2.3 11.8
    endloop
  endfacet
  facet normal 0 0 1
    outer loop
      vertex 12.75 2.3 11.8
      vertex 11.45 2.3 11.8
      vertex 12.75 1.3 11.8
    endloop
  endfacet
  facet normal -0 0 1
    outer loop
      vertex 10.1 3.6 11.8
      vertex 12.75 2.3 11.8
      vertex 15.3 3.6 11.8
    endloop
  endfacet
  facet normal 0 0 1
    outer loop
      vertex 12.75 2.3 11.8
      vertex 10.1 3.6 11.8
      vertex 11.45 2.3 11.8
    endloop
  endfacet
  facet normal 0 0 1
    outer loop
      vertex 11.45 2.3 11.8
      vertex 10.1 3.6 11.8
      vertex 10.1 2.3 11.8
    endloop
  endfacet
  facet normal -0 0 1
    outer loop
      vertex 19.7 3.6 11.8
      vertex 22.9 2.3 11.8
      vertex 22.9 3.6 11.8
    endloop
  endfacet
  facet normal 0 0 1
    outer loop
      vertex 22.9 2.3 11.8
      vertex 19.7 3.6 11.8
      vertex 19.7 2.3 11.8
    endloop
  endfacet
  facet normal -0 0 1
    outer loop
      vertex 20.9 51.9 11.8
      vertex 22.9 50.6 11.8
      vertex 22.9 51.9 11.8
    endloop
  endfacet
  facet normal 0 0 1
    outer loop
      vertex 22.9 50.6 11.8
      vertex 20.9 51.9 11.8
      vertex 20.9 50.6 11.8
    endloop
  endfacet
  facet normal 0 0 1
    outer loop
      vertex 22.9 51.9 11.8
      vertex 24.2 54.2 11.8
      vertex 22.9 52.9 11.8
    endloop
  endfacet
  facet normal 0 0 1
    outer loop
      vertex 24.2 54.2 11.8
      vertex 1.3 52.9 11.8
      vertex 22.9 52.9 11.8
    endloop
  endfacet
  facet normal 0 0 1
    outer loop
      vertex 0 54.2 11.8
      vertex 1.3 51.9 11.8
      vertex 1.3 52.9 11.8
    endloop
  endfacet
  facet normal 0 0 1
    outer loop
      vertex 1.3 51.9 11.8
      vertex 0 54.2 11.8
      vertex 1.3 50.6 11.8
    endloop
  endfacet
  facet normal 0 0 1
    outer loop
      vertex 1.3 50.6 11.8
      vertex 0 54.2 11.8
      vertex 1.3 3.6 11.8
    endloop
  endfacet
  facet normal 0 0 1
    outer loop
      vertex 0 0 11.8
      vertex 1.3 3.6 11.8
      vertex 0 54.2 11.8
    endloop
  endfacet
  facet normal 0 0 1
    outer loop
      vertex 1.3 3.6 11.8
      vertex 0 0 11.8
      vertex 1.3 2.3 11.8
    endloop
  endfacet
  facet normal -0 0 1
    outer loop
      vertex 0 54.2 11.8
      vertex 1.3 52.9 11.8
      vertex 24.2 54.2 11.8
    endloop
  endfacet
  facet normal 0 0 1
    outer loop
      vertex 22.9 50.6 11.8
      vertex 24.2 54.2 11.8
      vertex 22.9 51.9 11.8
    endloop
  endfacet
  facet normal 0 0 1
    outer loop
      vertex 24.2 54.2 11.8
      vertex 22.9 50.6 11.8
      vertex 24.2 0 11.8
    endloop
  endfacet
  facet normal -0 0 1
    outer loop
      vertex 22.9 3.6 11.8
      vertex 24.2 0 11.8
      vertex 22.9 50.6 11.8
    endloop
  endfacet
  facet normal -0 0 1
    outer loop
      vertex 22.9 2.3 11.8
      vertex 24.2 0 11.8
      vertex 22.9 3.6 11.8
    endloop
  endfacet
  facet normal -0 0 1
    outer loop
      vertex 22.9 1.3 11.8
      vertex 24.2 0 11.8
      vertex 22.9 2.3 11.8
    endloop
  endfacet
  facet normal -0 0 1
    outer loop
      vertex 12.75 1.3 11.8
      vertex 24.2 0 11.8
      vertex 22.9 1.3 11.8
    endloop
  endfacet
  facet normal 0 0 1
    outer loop
      vertex 11.45 1.3 11.8
      vertex 12.75 1.3 11.8
      vertex 11.45 2.3 11.8
    endloop
  endfacet
  facet normal -0 0 1
    outer loop
      vertex 11.45 1.3 11.8
      vertex 24.2 0 11.8
      vertex 12.75 1.3 11.8
    endloop
  endfacet
  facet normal 0 0 1
    outer loop
      vertex 0 0 11.8
      vertex 11.45 1.3 11.8
      vertex 1.3 1.3 11.8
    endloop
  endfacet
  facet normal 0 0 1
    outer loop
      vertex 11.45 1.3 11.8
      vertex 0 0 11.8
      vertex 24.2 0 11.8
    endloop
  endfacet
  facet normal 0 0 1
    outer loop
      vertex 1.3 2.3 11.8
      vertex 0 0 11.8
      vertex 1.3 1.3 11.8
    endloop
  endfacet
  facet normal -0 0 1
    outer loop
      vertex 1.3 51.9 11.8
      vertex 4.5 50.6 11.8
      vertex 4.5 51.9 11.8
    endloop
  endfacet
  facet normal 0 0 1
    outer loop
      vertex 4.5 50.6 11.8
      vertex 1.3 51.9 11.8
      vertex 1.3 50.6 11.8
    endloop
  endfacet
  facet normal -0 0 1
    outer loop
      vertex 1.3 3.6 11.8
      vertex 3.3 2.3 11.8
      vertex 3.3 3.6 11.8
    endloop
  endfacet
  facet normal 0 0 1
    outer loop
      vertex 3.3 2.3 11.8
      vertex 1.3 3.6 11.8
      vertex 1.3 2.3 11.8
    endloop
  endfacet
  facet normal -0 0 1
    outer loop
      vertex 8.9 51.9 11.8
      vertex 14.1 50.6 11.8
      vertex 14.1 51.9 11.8
    endloop
  endfacet
  facet normal 0 0 1
    outer loop
      vertex 14.1 50.6 11.8
      vertex 8.9 51.9 11.8
      vertex 8.9 50.6 11.8
    endloop
  endfacet
  facet normal 1 -0 0
    outer loop
      vertex 24.2 0 11.8
      vertex 24.2 54.2 0
      vertex 24.2 54.2 11.8
    endloop
  endfacet
  facet normal 1 0 0
    outer loop
      vertex 24.2 54.2 0
      vertex 24.2 0 11.8
      vertex 24.2 0 0
    endloop
  endfacet
  facet normal 0 0 -1
    outer loop
      vertex 0 0 0
      vertex 24.2 54.2 0
      vertex 24.2 0 0
    endloop
  endfacet
  facet normal -0 0 -1
    outer loop
      vertex 24.2 54.2 0
      vertex 0 0 0
      vertex 0 54.2 0
    endloop
  endfacet
  facet normal 0 -1 0
    outer loop
      vertex 0 0 0
      vertex 24.2 0 11.8
      vertex 0 0 11.8
    endloop
  endfacet
  facet normal 0 -1 -0
    outer loop
      vertex 24.2 0 11.8
      vertex 0 0 0
      vertex 24.2 0 0
    endloop
  endfacet
  facet normal 0 1 -0
    outer loop
      vertex 24.2 54.2 0
      vertex 0 54.2 11.8
      vertex 24.2 54.2 11.8
    endloop
  endfacet
  facet normal 0 1 0
    outer loop
      vertex 0 54.2 11.8
      vertex 24.2 54.2 0
      vertex 0 54.2 0
    endloop
  endfacet
  facet normal 1 -0 0
    outer loop
      vertex 1.3 3.6 11.8
      vertex 1.3 50.6 6.4
      vertex 1.3 50.6 11.8
    endloop
  endfacet
  facet normal 1 0 0
    outer loop
      vertex 1.3 50.6 6.4
      vertex 1.3 3.6 11.8
      vertex 1.3 3.6 6.4
    endloop
  endfacet
  facet normal -1 0 0
    outer loop
      vertex 22.9 3.6 6.4
      vertex 22.9 50.6 11.8
      vertex 22.9 50.6 6.4
    endloop
  endfacet
  facet normal -1 -0 0
    outer loop
      vertex 22.9 50.6 11.8
      vertex 22.9 3.6 6.4
      vertex 22.9 3.6 11.8
    endloop
  endfacet
  facet normal 1 0 0
    outer loop
      vertex 3.3 3.6 11.8
      vertex 3.3 2.3 11.8
      vertex 3.3 3.6 2.21472
    endloop
  endfacet
  facet normal 1 -0 0
    outer loop
      vertex 3.3 3.6 2.21472
      vertex 3.3 3.601 1.9
      vertex 3.3 3.601 2.21472
    endloop
  endfacet
  facet normal 1 0 0
    outer loop
      vertex 3.3 2.3 1.9
      vertex 3.3 3.6 2.21472
      vertex 3.3 2.3 11.8
    endloop
  endfacet
  facet normal 1 0 0
    outer loop
      vertex 3.3 3.6 2.21472
      vertex 3.3 2.3 1.9
      vertex 3.3 3.601 1.9
    endloop
  endfacet
  facet normal -1 0 0
    outer loop
      vertex 10.1 3.601 1.9
      vertex 10.1 3.6 2.21472
      vertex 10.1 3.601 2.21472
    endloop
  endfacet
  facet normal -1 0 0
    outer loop
      vertex 10.1 2.3 1.9
      vertex 10.1 3.6 2.21472
      vertex 10.1 3.601 1.9
    endloop
  endfacet
  facet normal -1 0 0
    outer loop
      vertex 10.1 2.3 11.8
      vertex 10.1 3.6 2.21472
      vertex 10.1 2.3 1.9
    endloop
  endfacet
  facet normal -1 0 0
    outer loop
      vertex 10.1 3.6 2.21472
      vertex 10.1 2.3 11.8
      vertex 10.1 3.6 11.8
    endloop
  endfacet
  facet normal 0 -1 0
    outer loop
      vertex 3.3 3.601 1.9
      vertex 3.41269 3.601 2.11589
      vertex 3.3 3.601 2.21472
    endloop
  endfacet
  facet normal 0 -1 -0
    outer loop
      vertex 3.41269 3.601 2.11589
      vertex 3.3 3.601 1.9
      vertex 3.73579 3.601 1.9
    endloop
  endfacet
  facet normal 0 -1 0
    outer loop
      vertex 9.98731 3.601 2.11589
      vertex 10.1 3.601 1.9
      vertex 10.1 3.601 2.21472
    endloop
  endfacet
  facet normal 0 -1 0
    outer loop
      vertex 10.1 3.601 1.9
      vertex 9.98731 3.601 2.11589
      vertex 9.66421 3.601 1.9
    endloop
  endfacet
  facet normal 1 -0 0
    outer loop
      vertex 15.3 2.3 11.8
      vertex 15.3 3.6 1.9
      vertex 15.3 3.6 11.8
    endloop
  endfacet
  facet normal 1 0 0
    outer loop
      vertex 15.3 3.6 1.9
      vertex 15.3 2.3 11.8
      vertex 15.3 2.3 1.9
    endloop
  endfacet
  facet normal -1 0 0
    outer loop
      vertex 19.7 2.3 1.9
      vertex 19.7 3.6 11.8
      vertex 19.7 3.6 1.9
    endloop
  endfacet
  facet normal -1 -0 0
    outer loop
      vertex 19.7 3.6 11.8
      vertex 19.7 2.3 1.9
      vertex 19.7 2.3 11.8
    endloop
  endfacet
  facet normal 1 0 0
    outer loop
      vertex 14.1 50.6 2.21472
      vertex 14.1 51.9 11.8
      vertex 14.1 50.6 11.8
    endloop
  endfacet
  facet normal 1 0 0
    outer loop
      vertex 14.1 51.9 11.8
      vertex 14.1 50.6 2.21472
      vertex 14.1 51.9 1.9
    endloop
  endfacet
  facet normal 1 0 0
    outer loop
      vertex 14.1 50.599 1.9
      vertex 14.1 50.6 2.21472
      vertex 14.1 50.599 2.21472
    endloop
  endfacet
  facet normal 1 0 0
    outer loop
      vertex 14.1 50.6 2.21472
      vertex 14.1 50.599 1.9
      vertex 14.1 51.9 1.9
    endloop
  endfacet
  facet normal -1 0 0
    outer loop
      vertex 20.9 51.9 1.9
      vertex 20.9 50.6 2.21472
      vertex 20.9 51.9 11.8
    endloop
  endfacet
  facet normal -1 0 0
    outer loop
      vertex 20.9 50.599 1.9
      vertex 20.9 50.6 2.21472
      vertex 20.9 51.9 1.9
    endloop
  endfacet
  facet normal -1 -0 0
    outer loop
      vertex 20.9 50.6 2.21472
      vertex 20.9 50.599 1.9
      vertex 20.9 50.599 2.21472
    endloop
  endfacet
  facet normal -1 -0 0
    outer loop
      vertex 20.9 51.9 11.8
      vertex 20.9 50.6 2.21472
      vertex 20.9 50.6 11.8
    endloop
  endfacet
  facet normal 0 1 0
    outer loop
      vertex 14.2127 50.599 2.11589
      vertex 14.1 50.599 1.9
      vertex 14.1 50.599 2.21472
    endloop
  endfacet
  facet normal 0 1 0
    outer loop
      vertex 14.1 50.599 1.9
      vertex 14.2127 50.599 2.11589
      vertex 14.5358 50.599 1.9
    endloop
  endfacet
  facet normal 0 1 -0
    outer loop
      vertex 20.9 50.599 1.9
      vertex 20.7873 50.599 2.11589
      vertex 20.9 50.599 2.21472
    endloop
  endfacet
  facet normal 0 1 0
    outer loop
      vertex 20.7873 50.599 2.11589
      vertex 20.9 50.599 1.9
      vertex 20.4642 50.599 1.9
    endloop
  endfacet
  facet normal 1 -0 0
    outer loop
      vertex 4.5 50.6 11.8
      vertex 4.5 51.9 1.9
      vertex 4.5 51.9 11.8
    endloop
  endfacet
  facet normal 1 0 0
    outer loop
      vertex 4.5 51.9 1.9
      vertex 4.5 50.6 11.8
      vertex 4.5 50.6 1.9
    endloop
  endfacet
  facet normal -1 0 0
    outer loop
      vertex 8.9 50.6 1.9
      vertex 8.9 51.9 11.8
      vertex 8.9 51.9 1.9
    endloop
  endfacet
  facet normal -1 -0 0
    outer loop
      vertex 8.9 51.9 11.8
      vertex 8.9 50.6 1.9
      vertex 8.9 50.6 11.8
    endloop
  endfacet
  facet normal -1 0 0
    outer loop
      vertex 11.45 1.3 1.9
      vertex 11.45 2.3 11.8
      vertex 11.45 2.3 1.9
    endloop
  endfacet
  facet normal -1 -0 0
    outer loop
      vertex 11.45 2.3 11.8
      vertex 11.45 1.3 1.9
      vertex 11.45 1.3 11.8
    endloop
  endfacet
  facet normal 1 -0 0
    outer loop
      vertex 12.75 1.3 11.8
      vertex 12.75 2.3 1.9
      vertex 12.75 2.3 11.8
    endloop
  endfacet
  facet normal 1 0 0
    outer loop
      vertex 12.75 2.3 1.9
      vertex 12.75 1.3 11.8
      vertex 12.75 1.3 1.9
    endloop
  endfacet
endsolid OpenSCAD_Model
