solid OpenSCAD_Model
  facet normal 1 0 0
    outer loop
      vertex 2.7 0.299999 4
      vertex 2.7 0.145384 0.71914
      vertex 2.7 0.299999 0.739496
    endloop
  endfacet
  facet normal 1 0 0
    outer loop
      vertex 2.7 -0.145384 0.71914
      vertex 2.7 0.145384 0.71914
      vertex 2.7 0.299999 4
    endloop
  endfacet
  facet normal 1 0 0
    outer loop
      vertex 2.7 0.145384 0.71914
      vertex 2.7 -0.145384 0.71914
      vertex 2.7 0 0.7
    endloop
  endfacet
  facet normal 1 -0 0
    outer loop
      vertex 2.7 -0.299999 4
      vertex 2.7 -0.145384 0.71914
      vertex 2.7 0.299999 4
    endloop
  endfacet
  facet normal 1 0 0
    outer loop
      vertex 2.7 -0.145384 0.71914
      vertex 2.7 -0.299999 4
      vertex 2.7 -0.299999 0.739496
    endloop
  endfacet
  facet normal 0 1 -0
    outer loop
      vertex 2.9605 -0.299999 1
      vertex 2.7 -0.299999 4
      vertex 2.9605 -0.299999 4
    endloop
  endfacet
  facet normal 0 1 0
    outer loop
      vertex 2.7 -0.299999 4
      vertex 2.9605 -0.299999 1
      vertex 2.7 -0.299999 0.739496
    endloop
  endfacet
  facet normal 0 -1 0
    outer loop
      vertex 2.7 0.299999 4
      vertex 2.9605 0.299999 1
      vertex 2.9605 0.299999 4
    endloop
  endfacet
  facet normal -0 -1 0
    outer loop
      vertex 2.9605 0.299999 1
      vertex 2.7 0.299999 4
      vertex 2.7 0.299999 0.739496
    endloop
  endfacet
  facet normal 0.866025 0.5 0
    outer loop
      vertex 2.48827 1.09019 0.739496
      vertex 2.18827 1.60981 0.739495
      vertex 2.18827 1.60981 4
    endloop
  endfacet
  facet normal 0.866025 0.5 4.11718e-06
    outer loop
      vertex 2.18827 1.60981 0.739495
      vertex 2.48827 1.09019 0.739496
      vertex 2.26558 1.47591 0.71914
    endloop
  endfacet
  facet normal 0.866026 0.5 1.55707e-06
    outer loop
      vertex 2.26558 1.47591 0.71914
      vertex 2.41096 1.22409 0.71914
      vertex 2.33827 1.35 0.7
    endloop
  endfacet
  facet normal 0.866025 0.5 -0
    outer loop
      vertex 2.48827 1.09019 0.739496
      vertex 2.18827 1.60981 4
      vertex 2.48827 1.09019 4
    endloop
  endfacet
  facet normal 0.866026 0.5 -8.81791e-06
    outer loop
      vertex 2.26558 1.47591 0.71914
      vertex 2.48827 1.09019 0.739496
      vertex 2.41096 1.22409 0.71914
    endloop
  endfacet
  facet normal -0.5 0.866025 0
    outer loop
      vertex 2.71387 1.22044 1
      vertex 2.48827 1.09019 4
      vertex 2.71387 1.22044 4
    endloop
  endfacet
  facet normal -0.5 0.866025 0
    outer loop
      vertex 2.48827 1.09019 4
      vertex 2.71387 1.22044 1
      vertex 2.48827 1.09019 0.739496
    endloop
  endfacet
  facet normal 0.5 -0.866025 0
    outer loop
      vertex 2.18827 1.60981 4
      vertex 2.41387 1.74006 1
      vertex 2.41387 1.74006 4
    endloop
  endfacet
  facet normal 0.5 -0.866025 0
    outer loop
      vertex 2.41387 1.74006 1
      vertex 2.18827 1.60981 4
      vertex 2.18827 1.60981 0.739495
    endloop
  endfacet
  facet normal 0.5 0.866025 0
    outer loop
      vertex 1.60981 2.18827 4
      vertex 1.09019 2.48827 0.739495
      vertex 1.09019 2.48827 4
    endloop
  endfacet
  facet normal 0.5 0.866025 -0
    outer loop
      vertex 1.60981 2.18827 0.739495
      vertex 1.09019 2.48827 0.739495
      vertex 1.60981 2.18827 4
    endloop
  endfacet
  facet normal 0.5 0.866025 -5.68638e-06
    outer loop
      vertex 1.60981 2.18827 0.739495
      vertex 1.22409 2.41096 0.71914
      vertex 1.09019 2.48827 0.739495
    endloop
  endfacet
  facet normal 0.5 0.866025 5.16706e-06
    outer loop
      vertex 1.47591 2.26558 0.71914
      vertex 1.22409 2.41096 0.71914
      vertex 1.60981 2.18827 0.739495
    endloop
  endfacet
  facet normal 0.5 0.866025 8.34424e-07
    outer loop
      vertex 1.22409 2.41096 0.71914
      vertex 1.47591 2.26558 0.71914
      vertex 1.35 2.33827 0.699999
    endloop
  endfacet
  facet normal -0.866026 0.5 0
    outer loop
      vertex 1.60981 2.18827 4
      vertex 1.74006 2.41387 1
      vertex 1.60981 2.18827 0.739495
    endloop
  endfacet
  facet normal -0.866026 0.5 0
    outer loop
      vertex 1.74006 2.41387 1
      vertex 1.60981 2.18827 4
      vertex 1.74006 2.41387 4
    endloop
  endfacet
  facet normal 0.866025 -0.5 0
    outer loop
      vertex 1.09019 2.48827 4
      vertex 1.22044 2.71387 1
      vertex 1.22044 2.71387 4
    endloop
  endfacet
  facet normal 0.866025 -0.5 0
    outer loop
      vertex 1.22044 2.71387 1
      vertex 1.09019 2.48827 4
      vertex 1.09019 2.48827 0.739495
    endloop
  endfacet
  facet normal 1 -0 0
    outer loop
      vertex -0.299999 2.7 4
      vertex -0.299999 2.9605 1
      vertex -0.299999 2.9605 4
    endloop
  endfacet
  facet normal 1 0 0
    outer loop
      vertex -0.299999 2.9605 1
      vertex -0.299999 2.7 4
      vertex -0.299999 2.7 0.739496
    endloop
  endfacet
  facet normal 0 1 -0
    outer loop
      vertex 0.299999 2.7 0.739496
      vertex -0.299999 2.7 4
      vertex 0.299999 2.7 4
    endloop
  endfacet
  facet normal 0 1 0
    outer loop
      vertex 0.299999 2.7 0.739496
      vertex -0.299999 2.7 0.739496
      vertex -0.299999 2.7 4
    endloop
  endfacet
  facet normal 0 1 -0
    outer loop
      vertex 0.145384 2.7 0.71914
      vertex -0.299999 2.7 0.739496
      vertex 0.299999 2.7 0.739496
    endloop
  endfacet
  facet normal 0 1 0
    outer loop
      vertex 0.145384 2.7 0.71914
      vertex -0.145384 2.7 0.71914
      vertex -0.299999 2.7 0.739496
    endloop
  endfacet
  facet normal -0 1 0
    outer loop
      vertex -0.145384 2.7 0.71914
      vertex 0.145384 2.7 0.71914
      vertex 0 2.7 0.7
    endloop
  endfacet
  facet normal -1 0 0
    outer loop
      vertex 0.299999 2.7 4
      vertex 0.299999 2.9605 1
      vertex 0.299999 2.7 0.739496
    endloop
  endfacet
  facet normal -1 0 0
    outer loop
      vertex 0.299999 2.9605 1
      vertex 0.299999 2.7 4
      vertex 0.299999 2.9605 4
    endloop
  endfacet
  facet normal -0.866025 -0.5 -0
    outer loop
      vertex -1.09019 2.48827 4
      vertex -1.22044 2.71387 1
      vertex -1.09019 2.48827 0.739496
    endloop
  endfacet
  facet normal -0.866025 -0.5 0
    outer loop
      vertex -1.22044 2.71387 1
      vertex -1.09019 2.48827 4
      vertex -1.22044 2.71387 4
    endloop
  endfacet
  facet normal -0.5 0.866025 0
    outer loop
      vertex -1.09019 2.48827 0.739496
      vertex -1.60981 2.18827 4
      vertex -1.09019 2.48827 4
    endloop
  endfacet
  facet normal -0.5 0.866025 0
    outer loop
      vertex -1.09019 2.48827 0.739496
      vertex -1.60981 2.18827 0.739495
      vertex -1.60981 2.18827 4
    endloop
  endfacet
  facet normal -0.5 0.866025 -4.32745e-06
    outer loop
      vertex -1.22409 2.41096 0.71914
      vertex -1.60981 2.18827 0.739495
      vertex -1.09019 2.48827 0.739496
    endloop
  endfacet
  facet normal -0.5 0.866026 8.6076e-06
    outer loop
      vertex -1.22409 2.41096 0.71914
      vertex -1.47591 2.26558 0.71914
      vertex -1.60981 2.18827 0.739495
    endloop
  endfacet
  facet normal -0.5 0.866026 1.55707e-06
    outer loop
      vertex -1.47591 2.26558 0.71914
      vertex -1.22409 2.41096 0.71914
      vertex -1.35 2.33827 0.7
    endloop
  endfacet
  facet normal 0.866025 0.5 0
    outer loop
      vertex -1.60981 2.18827 4
      vertex -1.74006 2.41387 1
      vertex -1.74006 2.41387 4
    endloop
  endfacet
  facet normal 0.866025 0.5 0
    outer loop
      vertex -1.74006 2.41387 1
      vertex -1.60981 2.18827 4
      vertex -1.60981 2.18827 0.739495
    endloop
  endfacet
  facet normal -0.866025 0.5 4.11718e-06
    outer loop
      vertex -2.48827 1.09019 0.739496
      vertex -2.18827 1.60981 0.739495
      vertex -2.26558 1.47591 0.71914
    endloop
  endfacet
  facet normal -0.866026 0.5 1.55707e-06
    outer loop
      vertex -2.41096 1.22409 0.71914
      vertex -2.26558 1.47591 0.71914
      vertex -2.33827 1.35 0.7
    endloop
  endfacet
  facet normal -0.866026 0.5 -8.81791e-06
    outer loop
      vertex -2.48827 1.09019 0.739496
      vertex -2.26558 1.47591 0.71914
      vertex -2.41096 1.22409 0.71914
    endloop
  endfacet
  facet normal -0.866025 0.5 0
    outer loop
      vertex -2.18827 1.60981 0.739495
      vertex -2.48827 1.09019 0.739496
      vertex -2.18827 1.60981 4
    endloop
  endfacet
  facet normal -0.866025 0.5 0
    outer loop
      vertex -2.18827 1.60981 4
      vertex -2.48827 1.09019 0.739496
      vertex -2.48827 1.09019 4
    endloop
  endfacet
  facet normal -0.5 -0.866025 0
    outer loop
      vertex -2.41387 1.74006 1
      vertex -2.18827 1.60981 4
      vertex -2.41387 1.74006 4
    endloop
  endfacet
  facet normal -0.5 -0.866025 -0
    outer loop
      vertex -2.18827 1.60981 4
      vertex -2.41387 1.74006 1
      vertex -2.18827 1.60981 0.739495
    endloop
  endfacet
  facet normal 0.5 0.866025 0
    outer loop
      vertex -2.48827 1.09019 4
      vertex -2.71387 1.22044 1
      vertex -2.71387 1.22044 4
    endloop
  endfacet
  facet normal 0.5 0.866025 0
    outer loop
      vertex -2.71387 1.22044 1
      vertex -2.48827 1.09019 4
      vertex -2.48827 1.09019 0.739496
    endloop
  endfacet
  facet normal -1 0 0
    outer loop
      vertex -2.7 0.145384 0.71914
      vertex -2.7 0.299999 4
      vertex -2.7 0.299999 0.739496
    endloop
  endfacet
  facet normal -1 0 0
    outer loop
      vertex -2.7 -0.145384 0.71914
      vertex -2.7 0.145384 0.71914
      vertex -2.7 0 0.7
    endloop
  endfacet
  facet normal -1 0 0
    outer loop
      vertex -2.7 0.145384 0.71914
      vertex -2.7 -0.145384 0.71914
      vertex -2.7 0.299999 4
    endloop
  endfacet
  facet normal -1 0 0
    outer loop
      vertex -2.7 -0.299999 0.739496
      vertex -2.7 0.299999 4
      vertex -2.7 -0.145384 0.71914
    endloop
  endfacet
  facet normal -1 -0 0
    outer loop
      vertex -2.7 0.299999 4
      vertex -2.7 -0.299999 0.739496
      vertex -2.7 -0.299999 4
    endloop
  endfacet
  facet normal 0 -1 0
    outer loop
      vertex -2.9605 0.299999 1
      vertex -2.7 0.299999 4
      vertex -2.9605 0.299999 4
    endloop
  endfacet
  facet normal 0 -1 -0
    outer loop
      vertex -2.7 0.299999 4
      vertex -2.9605 0.299999 1
      vertex -2.7 0.299999 0.739496
    endloop
  endfacet
  facet normal 0 1 0
    outer loop
      vertex -2.7 -0.299999 4
      vertex -2.9605 -0.299999 1
      vertex -2.9605 -0.299999 4
    endloop
  endfacet
  facet normal -0 1 0
    outer loop
      vertex -2.9605 -0.299999 1
      vertex -2.7 -0.299999 4
      vertex -2.7 -0.299999 0.739496
    endloop
  endfacet
  facet normal -0.866025 -0.5 -4.32745e-06
    outer loop
      vertex -2.18827 -1.60981 0.739495
      vertex -2.48827 -1.09019 0.739496
      vertex -2.41096 -1.22409 0.71914
    endloop
  endfacet
  facet normal -0.866026 -0.5 1.55707e-06
    outer loop
      vertex -2.26558 -1.47591 0.71914
      vertex -2.41096 -1.22409 0.71914
      vertex -2.33827 -1.35 0.7
    endloop
  endfacet
  facet normal -0.866026 -0.5 8.6076e-06
    outer loop
      vertex -2.18827 -1.60981 0.739495
      vertex -2.41096 -1.22409 0.71914
      vertex -2.26558 -1.47591 0.71914
    endloop
  endfacet
  facet normal -0.866025 -0.5 0
    outer loop
      vertex -2.48827 -1.09019 0.739496
      vertex -2.18827 -1.60981 0.739495
      vertex -2.48827 -1.09019 4
    endloop
  endfacet
  facet normal -0.866025 -0.5 0
    outer loop
      vertex -2.48827 -1.09019 4
      vertex -2.18827 -1.60981 0.739495
      vertex -2.18827 -1.60981 4
    endloop
  endfacet
  facet normal 0.5 -0.866025 0
    outer loop
      vertex -2.71387 -1.22044 1
      vertex -2.48827 -1.09019 4
      vertex -2.71387 -1.22044 4
    endloop
  endfacet
  facet normal 0.5 -0.866025 0
    outer loop
      vertex -2.48827 -1.09019 4
      vertex -2.71387 -1.22044 1
      vertex -2.48827 -1.09019 0.739496
    endloop
  endfacet
  facet normal -0.5 0.866025 0
    outer loop
      vertex -2.18827 -1.60981 4
      vertex -2.41387 -1.74006 1
      vertex -2.41387 -1.74006 4
    endloop
  endfacet
  facet normal -0.5 0.866025 0
    outer loop
      vertex -2.41387 -1.74006 1
      vertex -2.18827 -1.60981 4
      vertex -2.18827 -1.60981 0.739495
    endloop
  endfacet
  facet normal -0.5 -0.866025 0
    outer loop
      vertex -1.60981 -2.18827 4
      vertex -1.09019 -2.48827 0.739495
      vertex -1.09019 -2.48827 4
    endloop
  endfacet
  facet normal -0.5 -0.866025 0
    outer loop
      vertex -1.60981 -2.18827 0.739495
      vertex -1.09019 -2.48827 0.739495
      vertex -1.60981 -2.18827 4
    endloop
  endfacet
  facet normal -0.5 -0.866025 -5.68638e-06
    outer loop
      vertex -1.60981 -2.18827 0.739495
      vertex -1.22409 -2.41096 0.71914
      vertex -1.09019 -2.48827 0.739495
    endloop
  endfacet
  facet normal -0.5 -0.866025 5.16706e-06
    outer loop
      vertex -1.47591 -2.26558 0.71914
      vertex -1.22409 -2.41096 0.71914
      vertex -1.60981 -2.18827 0.739495
    endloop
  endfacet
  facet normal -0.5 -0.866025 8.34424e-07
    outer loop
      vertex -1.22409 -2.41096 0.71914
      vertex -1.47591 -2.26558 0.71914
      vertex -1.35 -2.33827 0.699999
    endloop
  endfacet
  facet normal 0.866026 -0.5 0
    outer loop
      vertex -1.74006 -2.41387 1
      vertex -1.60981 -2.18827 4
      vertex -1.74006 -2.41387 4
    endloop
  endfacet
  facet normal 0.866026 -0.5 0
    outer loop
      vertex -1.60981 -2.18827 4
      vertex -1.74006 -2.41387 1
      vertex -1.60981 -2.18827 0.739495
    endloop
  endfacet
  facet normal -0.866025 0.5 0
    outer loop
      vertex -1.22044 -2.71387 1
      vertex -1.09019 -2.48827 4
      vertex -1.09019 -2.48827 0.739495
    endloop
  endfacet
  facet normal -0.866025 0.5 0
    outer loop
      vertex -1.09019 -2.48827 4
      vertex -1.22044 -2.71387 1
      vertex -1.22044 -2.71387 4
    endloop
  endfacet
  facet normal 0 -1 0
    outer loop
      vertex -0.299999 -2.7 0.739496
      vertex 0.299999 -2.7 4
      vertex -0.299999 -2.7 4
    endloop
  endfacet
  facet normal 0 -1 0
    outer loop
      vertex -0.299999 -2.7 0.739496
      vertex 0.299999 -2.7 0.739496
      vertex 0.299999 -2.7 4
    endloop
  endfacet
  facet normal 0 -1 0
    outer loop
      vertex -0.145384 -2.7 0.71914
      vertex 0.299999 -2.7 0.739496
      vertex -0.299999 -2.7 0.739496
    endloop
  endfacet
  facet normal 0 -1 0
    outer loop
      vertex -0.145384 -2.7 0.71914
      vertex 0.145384 -2.7 0.71914
      vertex 0.299999 -2.7 0.739496
    endloop
  endfacet
  facet normal -0 -1 0
    outer loop
      vertex 0.145384 -2.7 0.71914
      vertex -0.145384 -2.7 0.71914
      vertex 0 -2.7 0.7
    endloop
  endfacet
  facet normal 1 0 0
    outer loop
      vertex -0.299999 -2.9605 1
      vertex -0.299999 -2.7 4
      vertex -0.299999 -2.9605 4
    endloop
  endfacet
  facet normal 1 0 0
    outer loop
      vertex -0.299999 -2.7 4
      vertex -0.299999 -2.9605 1
      vertex -0.299999 -2.7 0.739496
    endloop
  endfacet
  facet normal -1 0 0
    outer loop
      vertex 0.299999 -2.9605 1
      vertex 0.299999 -2.7 4
      vertex 0.299999 -2.7 0.739496
    endloop
  endfacet
  facet normal -1 -0 0
    outer loop
      vertex 0.299999 -2.7 4
      vertex 0.299999 -2.9605 1
      vertex 0.299999 -2.9605 4
    endloop
  endfacet
  facet normal 0.5 -0.866025 0
    outer loop
      vertex 1.09019 -2.48827 0.739495
      vertex 1.60981 -2.18827 4
      vertex 1.09019 -2.48827 4
    endloop
  endfacet
  facet normal 0.5 -0.866025 0
    outer loop
      vertex 1.09019 -2.48827 0.739495
      vertex 1.60981 -2.18827 0.739495
      vertex 1.60981 -2.18827 4
    endloop
  endfacet
  facet normal 0.5 -0.866025 -5.68638e-06
    outer loop
      vertex 1.22409 -2.41096 0.71914
      vertex 1.60981 -2.18827 0.739495
      vertex 1.09019 -2.48827 0.739495
    endloop
  endfacet
  facet normal 0.5 -0.866025 5.16706e-06
    outer loop
      vertex 1.22409 -2.41096 0.71914
      vertex 1.47591 -2.26558 0.71914
      vertex 1.60981 -2.18827 0.739495
    endloop
  endfacet
  facet normal 0.5 -0.866025 8.34424e-07
    outer loop
      vertex 1.47591 -2.26558 0.71914
      vertex 1.22409 -2.41096 0.71914
      vertex 1.35 -2.33827 0.699999
    endloop
  endfacet
  facet normal -0.866026 -0.5 0
    outer loop
      vertex 1.74006 -2.41387 1
      vertex 1.60981 -2.18827 4
      vertex 1.60981 -2.18827 0.739495
    endloop
  endfacet
  facet normal -0.866026 -0.5 0
    outer loop
      vertex 1.60981 -2.18827 4
      vertex 1.74006 -2.41387 1
      vertex 1.74006 -2.41387 4
    endloop
  endfacet
  facet normal 0.866025 0.5 -0
    outer loop
      vertex 1.22044 -2.71387 1
      vertex 1.09019 -2.48827 4
      vertex 1.22044 -2.71387 4
    endloop
  endfacet
  facet normal 0.866025 0.5 0
    outer loop
      vertex 1.09019 -2.48827 4
      vertex 1.22044 -2.71387 1
      vertex 1.09019 -2.48827 0.739495
    endloop
  endfacet
  facet normal 0.866025 -0.5 0
    outer loop
      vertex 2.18827 -1.60981 0.739495
      vertex 2.48827 -1.09019 0.739495
      vertex 2.48827 -1.09019 4
    endloop
  endfacet
  facet normal 0.866025 -0.5 -5.68638e-06
    outer loop
      vertex 2.48827 -1.09019 0.739495
      vertex 2.18827 -1.60981 0.739495
      vertex 2.41096 -1.22409 0.71914
    endloop
  endfacet
  facet normal 0.866025 -0.5 8.34424e-07
    outer loop
      vertex 2.41096 -1.22409 0.71914
      vertex 2.26558 -1.47591 0.71914
      vertex 2.33827 -1.35 0.699999
    endloop
  endfacet
  facet normal 0.866025 -0.5 0
    outer loop
      vertex 2.18827 -1.60981 0.739495
      vertex 2.48827 -1.09019 4
      vertex 2.18827 -1.60981 4
    endloop
  endfacet
  facet normal 0.866025 -0.5 5.16706e-06
    outer loop
      vertex 2.41096 -1.22409 0.71914
      vertex 2.18827 -1.60981 0.739495
      vertex 2.26558 -1.47591 0.71914
    endloop
  endfacet
  facet normal 0.5 0.866026 -0
    outer loop
      vertex 2.41387 -1.74006 1
      vertex 2.18827 -1.60981 4
      vertex 2.41387 -1.74006 4
    endloop
  endfacet
  facet normal 0.5 0.866026 0
    outer loop
      vertex 2.18827 -1.60981 4
      vertex 2.41387 -1.74006 1
      vertex 2.18827 -1.60981 0.739495
    endloop
  endfacet
  facet normal -0.5 -0.866025 0
    outer loop
      vertex 2.48827 -1.09019 4
      vertex 2.71387 -1.22044 1
      vertex 2.71387 -1.22044 4
    endloop
  endfacet
  facet normal -0.5 -0.866025 0
    outer loop
      vertex 2.71387 -1.22044 1
      vertex 2.48827 -1.09019 4
      vertex 2.48827 -1.09019 0.739495
    endloop
  endfacet
  facet normal 0.704063 0.0926922 -0.704063
    outer loop
      vertex 2 0 0
      vertex 2.7 0.145384 0.71914
      vertex 2.7 0 0.7
    endloop
  endfacet
  facet normal 0.704063 0.0926921 -0.704063
    outer loop
      vertex 2.7 0.145384 0.71914
      vertex 2 0 0
      vertex 1.93185 0.517637 0
    endloop
  endfacet
  facet normal -0.432305 0.56339 -0.704062
    outer loop
      vertex -1.41421 1.41421 0
      vertex -1.60981 2.18827 0.739495
      vertex -1.47591 2.26558 0.71914
    endloop
  endfacet
  facet normal -0.432305 0.56339 -0.704062
    outer loop
      vertex -2.12132 2.12132 1
      vertex -1.60981 2.18827 0.739495
      vertex -1.41421 1.41421 0
    endloop
  endfacet
  facet normal -0.432305 0.56339 -0.704063
    outer loop
      vertex -1.60981 2.18827 0.739495
      vertex -2.12132 2.12132 1
      vertex -1.74006 2.41387 1
    endloop
  endfacet
  facet normal 0.56339 -0.432305 -0.704063
    outer loop
      vertex 2.41387 -1.74006 1
      vertex 2.12132 -2.12132 1
      vertex 2.18827 -1.60981 0.739495
    endloop
  endfacet
  facet normal 0.56339 -0.432305 -0.704062
    outer loop
      vertex 2.18827 -1.60981 0.739495
      vertex 1.41421 -1.41421 0
      vertex 2.26558 -1.47591 0.71914
    endloop
  endfacet
  facet normal 0.56339 -0.432305 -0.704063
    outer loop
      vertex 1.41421 -1.41421 0
      vertex 2.18827 -1.60981 0.739495
      vertex 2.12132 -2.12132 1
    endloop
  endfacet
  facet normal 0.563391 0.432303 -0.704063
    outer loop
      vertex 1.73205 0.999999 0
      vertex 2.26558 1.47591 0.71914
      vertex 2.33827 1.35 0.7
    endloop
  endfacet
  facet normal 0.563391 0.432304 -0.704063
    outer loop
      vertex 2.26558 1.47591 0.71914
      vertex 1.73205 0.999999 0
      vertex 1.41421 1.41421 0
    endloop
  endfacet
  facet normal 0.432305 -0.56339 -0.704063
    outer loop
      vertex 1.60981 -2.18827 0.739495
      vertex 2.12132 -2.12132 1
      vertex 1.74006 -2.41387 1
    endloop
  endfacet
  facet normal 0.432305 -0.56339 -0.704063
    outer loop
      vertex 1.60981 -2.18827 0.739495
      vertex 1.41421 -1.41421 0
      vertex 2.12132 -2.12132 1
    endloop
  endfacet
  facet normal 0.432305 -0.56339 -0.704062
    outer loop
      vertex 1.41421 -1.41421 0
      vertex 1.60981 -2.18827 0.739495
      vertex 1.47591 -2.26558 0.71914
    endloop
  endfacet
  facet normal -0.704063 -0.0926922 -0.704063
    outer loop
      vertex -2 0 0
      vertex -2.7 -0.145384 0.71914
      vertex -2.7 0 0.7
    endloop
  endfacet
  facet normal -0.704063 -0.0926921 -0.704063
    outer loop
      vertex -2.7 -0.145384 0.71914
      vertex -2 0 0
      vertex -1.93185 -0.517637 0
    endloop
  endfacet
  facet normal -0.56339 0.432305 -0.704062
    outer loop
      vertex -1.41421 1.41421 0
      vertex -2.18827 1.60981 0.739495
      vertex -2.12132 2.12132 1
    endloop
  endfacet
  facet normal -0.56339 0.432305 -0.704062
    outer loop
      vertex -2.18827 1.60981 0.739495
      vertex -1.41421 1.41421 0
      vertex -2.26558 1.47591 0.71914
    endloop
  endfacet
  facet normal -0.56339 0.432305 -0.704063
    outer loop
      vertex -2.12132 2.12132 1
      vertex -2.18827 1.60981 0.739495
      vertex -2.41387 1.74006 1
    endloop
  endfacet
  facet normal 0.432305 0.56339 -0.704063
    outer loop
      vertex 2.12132 2.12132 1
      vertex 1.60981 2.18827 0.739495
      vertex 1.74006 2.41387 1
    endloop
  endfacet
  facet normal 0.432305 0.56339 -0.704062
    outer loop
      vertex 1.60981 2.18827 0.739495
      vertex 1.41421 1.41421 0
      vertex 1.47591 2.26558 0.71914
    endloop
  endfacet
  facet normal 0.432305 0.56339 -0.704063
    outer loop
      vertex 1.41421 1.41421 0
      vertex 1.60981 2.18827 0.739495
      vertex 2.12132 2.12132 1
    endloop
  endfacet
  facet normal 0.656082 0.271758 -0.704062
    outer loop
      vertex 2.89778 0.776457 1
      vertex 2.48827 1.09019 0.739496
      vertex 2.71387 1.22044 1
    endloop
  endfacet
  facet normal 0.656082 0.271758 -0.704063
    outer loop
      vertex 2.48827 1.09019 0.739496
      vertex 1.93185 0.517637 0
      vertex 2.41096 1.22409 0.71914
    endloop
  endfacet
  facet normal 0.656082 0.271758 -0.704062
    outer loop
      vertex 1.93185 0.517637 0
      vertex 2.48827 1.09019 0.739496
      vertex 2.89778 0.776457 1
    endloop
  endfacet
  facet normal 0.56339 -0.432304 -0.704063
    outer loop
      vertex 2.26558 -1.47591 0.71914
      vertex 1.73205 -1 0
      vertex 2.33827 -1.35 0.699999
    endloop
  endfacet
  facet normal 0.56339 -0.432304 -0.704063
    outer loop
      vertex 1.73205 -1 0
      vertex 2.26558 -1.47591 0.71914
      vertex 1.41421 -1.41421 0
    endloop
  endfacet
  facet normal 0.432304 -0.56339 -0.704063
    outer loop
      vertex 1 -1.73205 0
      vertex 1.47591 -2.26558 0.71914
      vertex 1.35 -2.33827 0.699999
    endloop
  endfacet
  facet normal 0.432304 -0.56339 -0.704063
    outer loop
      vertex 1.47591 -2.26558 0.71914
      vertex 1 -1.73205 0
      vertex 1.41421 -1.41421 0
    endloop
  endfacet
  facet normal -0.0926921 -0.704063 -0.704063
    outer loop
      vertex 0 -2 0
      vertex -0.145384 -2.7 0.71914
      vertex -0.517637 -1.93185 0
    endloop
  endfacet
  facet normal -0.0926922 -0.704063 -0.704063
    outer loop
      vertex -0.145384 -2.7 0.71914
      vertex 0 -2 0
      vertex 0 -2.7 0.7
    endloop
  endfacet
  facet normal -0.56339 -0.432305 -0.704063
    outer loop
      vertex -2.12132 -2.12132 1
      vertex -2.41387 -1.74006 1
      vertex -2.18827 -1.60981 0.739495
    endloop
  endfacet
  facet normal -0.56339 -0.432305 -0.704062
    outer loop
      vertex -2.18827 -1.60981 0.739495
      vertex -1.41421 -1.41421 0
      vertex -2.12132 -2.12132 1
    endloop
  endfacet
  facet normal -0.56339 -0.432305 -0.704062
    outer loop
      vertex -1.41421 -1.41421 0
      vertex -2.18827 -1.60981 0.739495
      vertex -2.26558 -1.47591 0.71914
    endloop
  endfacet
  facet normal -0.432305 -0.56339 -0.704062
    outer loop
      vertex -1.60981 -2.18827 0.739495
      vertex -1.41421 -1.41421 0
      vertex -1.47591 -2.26558 0.71914
    endloop
  endfacet
  facet normal -0.432305 -0.56339 -0.704063
    outer loop
      vertex -2.12132 -2.12132 1
      vertex -1.60981 -2.18827 0.739495
      vertex -1.74006 -2.41387 1
    endloop
  endfacet
  facet normal -0.432305 -0.56339 -0.704063
    outer loop
      vertex -1.60981 -2.18827 0.739495
      vertex -2.12132 -2.12132 1
      vertex -1.41421 -1.41421 0
    endloop
  endfacet
  facet normal -0.563391 0.432304 -0.704063
    outer loop
      vertex -1.73205 0.999999 0
      vertex -2.26558 1.47591 0.71914
      vertex -1.41421 1.41421 0
    endloop
  endfacet
  facet normal -0.563391 0.432303 -0.704063
    outer loop
      vertex -2.26558 1.47591 0.71914
      vertex -1.73205 0.999999 0
      vertex -2.33827 1.35 0.7
    endloop
  endfacet
  facet normal -0.432304 0.563391 -0.704063
    outer loop
      vertex -1.47591 2.26558 0.71914
      vertex -0.999999 1.73205 0
      vertex -1.41421 1.41421 0
    endloop
  endfacet
  facet normal -0.432303 0.563391 -0.704063
    outer loop
      vertex -0.999999 1.73205 0
      vertex -1.47591 2.26558 0.71914
      vertex -1.35 2.33827 0.7
    endloop
  endfacet
  facet normal 0.56339 0.432305 -0.704062
    outer loop
      vertex 2.18827 1.60981 0.739495
      vertex 1.41421 1.41421 0
      vertex 2.12132 2.12132 1
    endloop
  endfacet
  facet normal 0.56339 0.432305 -0.704062
    outer loop
      vertex 1.41421 1.41421 0
      vertex 2.18827 1.60981 0.739495
      vertex 2.26558 1.47591 0.71914
    endloop
  endfacet
  facet normal 0.56339 0.432305 -0.704063
    outer loop
      vertex 2.41387 1.74006 1
      vertex 2.18827 1.60981 0.739495
      vertex 2.12132 2.12132 1
    endloop
  endfacet
  facet normal 0.704063 0.0926925 -0.704063
    outer loop
      vertex 2.7 0.299999 0.739496
      vertex 2.89778 0.776457 1
      vertex 2.9605 0.299999 1
    endloop
  endfacet
  facet normal 0.704063 0.0926924 -0.704062
    outer loop
      vertex 2.89778 0.776457 1
      vertex 2.7 0.299999 0.739496
      vertex 1.93185 0.517637 0
    endloop
  endfacet
  facet normal 0.704063 0.0926923 -0.704062
    outer loop
      vertex 1.93185 0.517637 0
      vertex 2.7 0.299999 0.739496
      vertex 2.7 0.145384 0.71914
    endloop
  endfacet
  facet normal 0.704063 -0.0926922 -0.704063
    outer loop
      vertex 2.7 -0.145384 0.71914
      vertex 2 0 0
      vertex 2.7 0 0.7
    endloop
  endfacet
  facet normal 0.704063 -0.0926921 -0.704063
    outer loop
      vertex 2 0 0
      vertex 2.7 -0.145384 0.71914
      vertex 1.93185 -0.517637 0
    endloop
  endfacet
  facet normal 0.704063 -0.0926925 -0.704063
    outer loop
      vertex 2.89778 -0.776457 1
      vertex 2.7 -0.299999 0.739496
      vertex 2.9605 -0.299999 1
    endloop
  endfacet
  facet normal 0.704063 -0.0926924 -0.704062
    outer loop
      vertex 2.7 -0.299999 0.739496
      vertex 2.89778 -0.776457 1
      vertex 1.93185 -0.517637 0
    endloop
  endfacet
  facet normal 0.704063 -0.0926923 -0.704062
    outer loop
      vertex 2.7 -0.145384 0.71914
      vertex 2.7 -0.299999 0.739496
      vertex 1.93185 -0.517637 0
    endloop
  endfacet
  facet normal 0.656082 -0.271758 -0.704062
    outer loop
      vertex 2.48827 -1.09019 0.739495
      vertex 2.89778 -0.776457 1
      vertex 2.71387 -1.22044 1
    endloop
  endfacet
  facet normal 0.656082 -0.271758 -0.704063
    outer loop
      vertex 2.48827 -1.09019 0.739495
      vertex 1.93185 -0.517637 0
      vertex 2.89778 -0.776457 1
    endloop
  endfacet
  facet normal 0.656082 -0.271758 -0.704063
    outer loop
      vertex 1.93185 -0.517637 0
      vertex 2.48827 -1.09019 0.739495
      vertex 2.41096 -1.22409 0.71914
    endloop
  endfacet
  facet normal 0.271758 -0.656082 -0.704062
    outer loop
      vertex 1.22044 -2.71387 1
      vertex 0.776457 -2.89778 1
      vertex 1.09019 -2.48827 0.739495
    endloop
  endfacet
  facet normal 0.271758 -0.656082 -0.704063
    outer loop
      vertex 1.09019 -2.48827 0.739495
      vertex 0.517637 -1.93185 0
      vertex 1.22409 -2.41096 0.71914
    endloop
  endfacet
  facet normal 0.271758 -0.656082 -0.704063
    outer loop
      vertex 0.517637 -1.93185 0
      vertex 1.09019 -2.48827 0.739495
      vertex 0.776457 -2.89778 1
    endloop
  endfacet
  facet normal 0.0926922 -0.704063 -0.704063
    outer loop
      vertex 0 -2 0
      vertex 0.145384 -2.7 0.71914
      vertex 0 -2.7 0.7
    endloop
  endfacet
  facet normal 0.0926921 -0.704063 -0.704063
    outer loop
      vertex 0.145384 -2.7 0.71914
      vertex 0 -2 0
      vertex 0.517637 -1.93185 0
    endloop
  endfacet
  facet normal 0.0926925 -0.704063 -0.704063
    outer loop
      vertex 0.299999 -2.7 0.739496
      vertex 0.776457 -2.89778 1
      vertex 0.299999 -2.9605 1
    endloop
  endfacet
  facet normal 0.0926924 -0.704063 -0.704062
    outer loop
      vertex 0.299999 -2.7 0.739496
      vertex 0.517637 -1.93185 0
      vertex 0.776457 -2.89778 1
    endloop
  endfacet
  facet normal 0.0926923 -0.704063 -0.704062
    outer loop
      vertex 0.517637 -1.93185 0
      vertex 0.299999 -2.7 0.739496
      vertex 0.145384 -2.7 0.71914
    endloop
  endfacet
  facet normal -0.656082 -0.271758 -0.704063
    outer loop
      vertex -2.48827 -1.09019 0.739496
      vertex -1.93185 -0.517637 0
      vertex -2.41096 -1.22409 0.71914
    endloop
  endfacet
  facet normal -0.656082 -0.271758 -0.704062
    outer loop
      vertex -2.89778 -0.776457 1
      vertex -2.48827 -1.09019 0.739496
      vertex -2.71387 -1.22044 1
    endloop
  endfacet
  facet normal -0.656082 -0.271758 -0.704062
    outer loop
      vertex -2.48827 -1.09019 0.739496
      vertex -2.89778 -0.776457 1
      vertex -1.93185 -0.517637 0
    endloop
  endfacet
  facet normal -0.704063 -0.0926923 -0.704062
    outer loop
      vertex -1.93185 -0.517637 0
      vertex -2.7 -0.299999 0.739496
      vertex -2.7 -0.145384 0.71914
    endloop
  endfacet
  facet normal -0.704063 -0.0926924 -0.704062
    outer loop
      vertex -2.89778 -0.776457 1
      vertex -2.7 -0.299999 0.739496
      vertex -1.93185 -0.517637 0
    endloop
  endfacet
  facet normal -0.704063 -0.0926925 -0.704063
    outer loop
      vertex -2.7 -0.299999 0.739496
      vertex -2.89778 -0.776457 1
      vertex -2.9605 -0.299999 1
    endloop
  endfacet
  facet normal -0.563391 -0.432304 -0.704063
    outer loop
      vertex -2.26558 -1.47591 0.71914
      vertex -1.73205 -0.999999 0
      vertex -1.41421 -1.41421 0
    endloop
  endfacet
  facet normal -0.563391 -0.432303 -0.704063
    outer loop
      vertex -1.73205 -0.999999 0
      vertex -2.26558 -1.47591 0.71914
      vertex -2.33827 -1.35 0.7
    endloop
  endfacet
  facet normal -0.271758 -0.656082 -0.704062
    outer loop
      vertex -0.776457 -2.89778 1
      vertex -1.22044 -2.71387 1
      vertex -1.09019 -2.48827 0.739495
    endloop
  endfacet
  facet normal -0.271758 -0.656082 -0.704063
    outer loop
      vertex -1.09019 -2.48827 0.739495
      vertex -0.517637 -1.93185 0
      vertex -0.776457 -2.89778 1
    endloop
  endfacet
  facet normal -0.271758 -0.656082 -0.704063
    outer loop
      vertex -0.517637 -1.93185 0
      vertex -1.09019 -2.48827 0.739495
      vertex -1.22409 -2.41096 0.71914
    endloop
  endfacet
  facet normal -0.704063 0.0926921 -0.704063
    outer loop
      vertex -2 0 0
      vertex -2.7 0.145384 0.71914
      vertex -1.93185 0.517637 0
    endloop
  endfacet
  facet normal -0.704063 0.0926922 -0.704063
    outer loop
      vertex -2.7 0.145384 0.71914
      vertex -2 0 0
      vertex -2.7 0 0.7
    endloop
  endfacet
  facet normal -0.704063 0.0926923 -0.704062
    outer loop
      vertex -1.93185 0.517637 0
      vertex -2.7 0.145384 0.71914
      vertex -2.7 0.299999 0.739496
    endloop
  endfacet
  facet normal -0.704063 0.0926924 -0.704062
    outer loop
      vertex -2.7 0.299999 0.739496
      vertex -2.89778 0.776457 1
      vertex -1.93185 0.517637 0
    endloop
  endfacet
  facet normal -0.704063 0.0926925 -0.704063
    outer loop
      vertex -2.89778 0.776457 1
      vertex -2.7 0.299999 0.739496
      vertex -2.9605 0.299999 1
    endloop
  endfacet
  facet normal -0.656082 0.271758 -0.704063
    outer loop
      vertex -1.93185 0.517637 0
      vertex -2.48827 1.09019 0.739496
      vertex -2.41096 1.22409 0.71914
    endloop
  endfacet
  facet normal -0.656082 0.271758 -0.704062
    outer loop
      vertex -2.89778 0.776457 1
      vertex -2.48827 1.09019 0.739496
      vertex -1.93185 0.517637 0
    endloop
  endfacet
  facet normal -0.656082 0.271758 -0.704062
    outer loop
      vertex -2.48827 1.09019 0.739496
      vertex -2.89778 0.776457 1
      vertex -2.71387 1.22044 1
    endloop
  endfacet
  facet normal -0.271758 0.656082 -0.704062
    outer loop
      vertex -0.517637 1.93185 0
      vertex -1.09019 2.48827 0.739496
      vertex -0.776457 2.89778 1
    endloop
  endfacet
  facet normal -0.271758 0.656082 -0.704063
    outer loop
      vertex -1.09019 2.48827 0.739496
      vertex -0.517637 1.93185 0
      vertex -1.22409 2.41096 0.71914
    endloop
  endfacet
  facet normal -0.271758 0.656082 -0.704062
    outer loop
      vertex -0.776457 2.89778 1
      vertex -1.09019 2.48827 0.739496
      vertex -1.22044 2.71387 1
    endloop
  endfacet
  facet normal -0.0926922 0.704063 -0.704063
    outer loop
      vertex 0 2 0
      vertex -0.145384 2.7 0.71914
      vertex 0 2.7 0.7
    endloop
  endfacet
  facet normal -0.0926921 0.704063 -0.704063
    outer loop
      vertex -0.145384 2.7 0.71914
      vertex 0 2 0
      vertex -0.517637 1.93185 0
    endloop
  endfacet
  facet normal -0.0926925 0.704063 -0.704063
    outer loop
      vertex -0.299999 2.7 0.739496
      vertex -0.776457 2.89778 1
      vertex -0.299999 2.9605 1
    endloop
  endfacet
  facet normal -0.0926924 0.704063 -0.704062
    outer loop
      vertex -0.299999 2.7 0.739496
      vertex -0.517637 1.93185 0
      vertex -0.776457 2.89778 1
    endloop
  endfacet
  facet normal -0.0926923 0.704063 -0.704062
    outer loop
      vertex -0.517637 1.93185 0
      vertex -0.299999 2.7 0.739496
      vertex -0.145384 2.7 0.71914
    endloop
  endfacet
  facet normal 0.271758 0.656082 -0.704063
    outer loop
      vertex 1 1.73205 0
      vertex 1.22409 2.41096 0.71914
      vertex 1.35 2.33827 0.699999
    endloop
  endfacet
  facet normal 0.271758 0.656082 -0.704063
    outer loop
      vertex 1.22409 2.41096 0.71914
      vertex 1 1.73205 0
      vertex 0.517637 1.93185 0
    endloop
  endfacet
  facet normal 0.0926921 0.704063 -0.704063
    outer loop
      vertex 0 2 0
      vertex 0.145384 2.7 0.71914
      vertex 0.517637 1.93185 0
    endloop
  endfacet
  facet normal 0.0926922 0.704063 -0.704063
    outer loop
      vertex 0.145384 2.7 0.71914
      vertex 0 2 0
      vertex 0 2.7 0.7
    endloop
  endfacet
  facet normal 0.656082 -0.271758 -0.704063
    outer loop
      vertex 1.73205 -1 0
      vertex 2.41096 -1.22409 0.71914
      vertex 2.33827 -1.35 0.699999
    endloop
  endfacet
  facet normal 0.656082 -0.271758 -0.704063
    outer loop
      vertex 2.41096 -1.22409 0.71914
      vertex 1.73205 -1 0
      vertex 1.93185 -0.517637 0
    endloop
  endfacet
  facet normal 0.271758 -0.656082 -0.704063
    outer loop
      vertex 1.22409 -2.41096 0.71914
      vertex 1 -1.73205 0
      vertex 1.35 -2.33827 0.699999
    endloop
  endfacet
  facet normal 0.271758 -0.656082 -0.704063
    outer loop
      vertex 1 -1.73205 0
      vertex 1.22409 -2.41096 0.71914
      vertex 0.517637 -1.93185 0
    endloop
  endfacet
  facet normal 0 0 -1
    outer loop
      vertex 1.93185 -0.517637 0
      vertex 1.93185 0.517637 0
      vertex 2 0 0
    endloop
  endfacet
  facet normal 0 0 -1
    outer loop
      vertex 1.73205 -1 0
      vertex 1.93185 0.517637 0
      vertex 1.93185 -0.517637 0
    endloop
  endfacet
  facet normal 0 0 -1
    outer loop
      vertex 1.73205 -1 0
      vertex 1.73205 0.999999 0
      vertex 1.93185 0.517637 0
    endloop
  endfacet
  facet normal 0 0 -1
    outer loop
      vertex 1.41421 -1.41421 0
      vertex 1.73205 0.999999 0
      vertex 1.73205 -1 0
    endloop
  endfacet
  facet normal 0 0 -1
    outer loop
      vertex 1.41421 -1.41421 0
      vertex 1.41421 1.41421 0
      vertex 1.73205 0.999999 0
    endloop
  endfacet
  facet normal 0 0 -1
    outer loop
      vertex 1 -1.73205 0
      vertex 1.41421 1.41421 0
      vertex 1.41421 -1.41421 0
    endloop
  endfacet
  facet normal 0 0 -1
    outer loop
      vertex 1 -1.73205 0
      vertex 1 1.73205 0
      vertex 1.41421 1.41421 0
    endloop
  endfacet
  facet normal 0 0 -1
    outer loop
      vertex 0.517637 -1.93185 0
      vertex 1 1.73205 0
      vertex 1 -1.73205 0
    endloop
  endfacet
  facet normal 0 0 -1
    outer loop
      vertex 0.517637 -1.93185 0
      vertex 0.517637 1.93185 0
      vertex 1 1.73205 0
    endloop
  endfacet
  facet normal 0 0 -1
    outer loop
      vertex 0 -2 0
      vertex 0.517637 1.93185 0
      vertex 0.517637 -1.93185 0
    endloop
  endfacet
  facet normal 0 0 -1
    outer loop
      vertex 0 -2 0
      vertex 0 2 0
      vertex 0.517637 1.93185 0
    endloop
  endfacet
  facet normal 0 0 -1
    outer loop
      vertex -0.517637 -1.93185 0
      vertex 0 2 0
      vertex 0 -2 0
    endloop
  endfacet
  facet normal 0 0 -1
    outer loop
      vertex -0.517637 -1.93185 0
      vertex -0.517637 1.93185 0
      vertex 0 2 0
    endloop
  endfacet
  facet normal 0 0 -1
    outer loop
      vertex -0.517637 -1.93185 0
      vertex -0.999999 1.73205 0
      vertex -0.517637 1.93185 0
    endloop
  endfacet
  facet normal 0 0 -1
    outer loop
      vertex -1 -1.73205 0
      vertex -0.999999 1.73205 0
      vertex -0.517637 -1.93185 0
    endloop
  endfacet
  facet normal 0 0 -1
    outer loop
      vertex -1.41421 -1.41421 0
      vertex -0.999999 1.73205 0
      vertex -1 -1.73205 0
    endloop
  endfacet
  facet normal 0 0 -1
    outer loop
      vertex -1.41421 -1.41421 0
      vertex -1.41421 1.41421 0
      vertex -0.999999 1.73205 0
    endloop
  endfacet
  facet normal 0 0 -1
    outer loop
      vertex -1.73205 -0.999999 0
      vertex -1.41421 1.41421 0
      vertex -1.41421 -1.41421 0
    endloop
  endfacet
  facet normal 0 0 -1
    outer loop
      vertex -1.73205 -0.999999 0
      vertex -1.73205 0.999999 0
      vertex -1.41421 1.41421 0
    endloop
  endfacet
  facet normal 0 0 -1
    outer loop
      vertex -1.93185 -0.517637 0
      vertex -1.73205 0.999999 0
      vertex -1.73205 -0.999999 0
    endloop
  endfacet
  facet normal 0 0 -1
    outer loop
      vertex -1.93185 -0.517637 0
      vertex -1.93185 0.517637 0
      vertex -1.73205 0.999999 0
    endloop
  endfacet
  facet normal 0 -0 -1
    outer loop
      vertex -1.93185 0.517637 0
      vertex -1.93185 -0.517637 0
      vertex -2 0 0
    endloop
  endfacet
  facet normal -0.656082 -0.271758 -0.704063
    outer loop
      vertex -2.41096 -1.22409 0.71914
      vertex -1.73205 -0.999999 0
      vertex -2.33827 -1.35 0.7
    endloop
  endfacet
  facet normal -0.656081 -0.271759 -0.704063
    outer loop
      vertex -1.73205 -0.999999 0
      vertex -2.41096 -1.22409 0.71914
      vertex -1.93185 -0.517637 0
    endloop
  endfacet
  facet normal -0.0926925 -0.704063 -0.704063
    outer loop
      vertex -0.776457 -2.89778 1
      vertex -0.299999 -2.7 0.739496
      vertex -0.299999 -2.9605 1
    endloop
  endfacet
  facet normal -0.0926923 -0.704063 -0.704062
    outer loop
      vertex -0.299999 -2.7 0.739496
      vertex -0.517637 -1.93185 0
      vertex -0.145384 -2.7 0.71914
    endloop
  endfacet
  facet normal -0.0926924 -0.704063 -0.704062
    outer loop
      vertex -0.517637 -1.93185 0
      vertex -0.299999 -2.7 0.739496
      vertex -0.776457 -2.89778 1
    endloop
  endfacet
  facet normal -0.271758 -0.656082 -0.704063
    outer loop
      vertex -1.22409 -2.41096 0.71914
      vertex -1 -1.73205 0
      vertex -0.517637 -1.93185 0
    endloop
  endfacet
  facet normal -0.271758 -0.656082 -0.704063
    outer loop
      vertex -1 -1.73205 0
      vertex -1.22409 -2.41096 0.71914
      vertex -1.35 -2.33827 0.699999
    endloop
  endfacet
  facet normal -0.432304 -0.56339 -0.704063
    outer loop
      vertex -1.47591 -2.26558 0.71914
      vertex -1 -1.73205 0
      vertex -1.35 -2.33827 0.699999
    endloop
  endfacet
  facet normal -0.432304 -0.56339 -0.704063
    outer loop
      vertex -1 -1.73205 0
      vertex -1.47591 -2.26558 0.71914
      vertex -1.41421 -1.41421 0
    endloop
  endfacet
  facet normal -0.656081 0.271759 -0.704063
    outer loop
      vertex -2.41096 1.22409 0.71914
      vertex -1.73205 0.999999 0
      vertex -1.93185 0.517637 0
    endloop
  endfacet
  facet normal -0.656082 0.271758 -0.704063
    outer loop
      vertex -1.73205 0.999999 0
      vertex -2.41096 1.22409 0.71914
      vertex -2.33827 1.35 0.7
    endloop
  endfacet
  facet normal -0.271759 0.656081 -0.704063
    outer loop
      vertex -0.999999 1.73205 0
      vertex -1.22409 2.41096 0.71914
      vertex -0.517637 1.93185 0
    endloop
  endfacet
  facet normal -0.271758 0.656082 -0.704063
    outer loop
      vertex -1.22409 2.41096 0.71914
      vertex -0.999999 1.73205 0
      vertex -1.35 2.33827 0.7
    endloop
  endfacet
  facet normal 0.656081 0.271759 -0.704063
    outer loop
      vertex 1.73205 0.999999 0
      vertex 2.41096 1.22409 0.71914
      vertex 1.93185 0.517637 0
    endloop
  endfacet
  facet normal 0.656082 0.271758 -0.704063
    outer loop
      vertex 2.41096 1.22409 0.71914
      vertex 1.73205 0.999999 0
      vertex 2.33827 1.35 0.7
    endloop
  endfacet
  facet normal 0.0926925 0.704063 -0.704063
    outer loop
      vertex 0.776457 2.89778 1
      vertex 0.299999 2.7 0.739496
      vertex 0.299999 2.9605 1
    endloop
  endfacet
  facet normal 0.0926923 0.704063 -0.704062
    outer loop
      vertex 0.299999 2.7 0.739496
      vertex 0.517637 1.93185 0
      vertex 0.145384 2.7 0.71914
    endloop
  endfacet
  facet normal 0.0926924 0.704063 -0.704062
    outer loop
      vertex 0.517637 1.93185 0
      vertex 0.299999 2.7 0.739496
      vertex 0.776457 2.89778 1
    endloop
  endfacet
  facet normal 0.271758 0.656082 -0.704063
    outer loop
      vertex 1.09019 2.48827 0.739495
      vertex 0.517637 1.93185 0
      vertex 0.776457 2.89778 1
    endloop
  endfacet
  facet normal 0.271758 0.656082 -0.704063
    outer loop
      vertex 0.517637 1.93185 0
      vertex 1.09019 2.48827 0.739495
      vertex 1.22409 2.41096 0.71914
    endloop
  endfacet
  facet normal 0.271758 0.656082 -0.704062
    outer loop
      vertex 1.22044 2.71387 1
      vertex 1.09019 2.48827 0.739495
      vertex 0.776457 2.89778 1
    endloop
  endfacet
  facet normal 0.432304 0.56339 -0.704063
    outer loop
      vertex 1 1.73205 0
      vertex 1.47591 2.26558 0.71914
      vertex 1.41421 1.41421 0
    endloop
  endfacet
  facet normal 0.432304 0.56339 -0.704063
    outer loop
      vertex 1.47591 2.26558 0.71914
      vertex 1 1.73205 0
      vertex 1.35 2.33827 0.699999
    endloop
  endfacet
  facet normal 0.991445 0.130527 0
    outer loop
      vertex 2.9605 0.299999 4
      vertex 2.89778 0.776457 1
      vertex 2.89778 0.776457 4
    endloop
  endfacet
  facet normal 0.991445 0.130527 0
    outer loop
      vertex 2.89778 0.776457 1
      vertex 2.9605 0.299999 4
      vertex 2.9605 0.299999 1
    endloop
  endfacet
  facet normal -0.991445 0.130527 0
    outer loop
      vertex -2.9605 0.299999 1
      vertex -2.89778 0.776457 4
      vertex -2.89778 0.776457 1
    endloop
  endfacet
  facet normal -0.991445 0.130527 0
    outer loop
      vertex -2.89778 0.776457 4
      vertex -2.9605 0.299999 1
      vertex -2.9605 0.299999 4
    endloop
  endfacet
  facet normal 0.130527 0.991445 -0
    outer loop
      vertex 0.776457 2.89778 1
      vertex 0.299999 2.9605 4
      vertex 0.776457 2.89778 4
    endloop
  endfacet
  facet normal 0.130527 0.991445 0
    outer loop
      vertex 0.299999 2.9605 4
      vertex 0.776457 2.89778 1
      vertex 0.299999 2.9605 1
    endloop
  endfacet
  facet normal 0.608762 0.793353 -0
    outer loop
      vertex 2.12132 2.12132 1
      vertex 1.74006 2.41387 4
      vertex 2.12132 2.12132 4
    endloop
  endfacet
  facet normal 0.608762 0.793353 0
    outer loop
      vertex 1.74006 2.41387 4
      vertex 2.12132 2.12132 1
      vertex 1.74006 2.41387 1
    endloop
  endfacet
  facet normal 0.92388 0.382683 0
    outer loop
      vertex 2.89778 0.776457 4
      vertex 2.71387 1.22044 1
      vertex 2.71387 1.22044 4
    endloop
  endfacet
  facet normal 0.92388 0.382683 0
    outer loop
      vertex 2.71387 1.22044 1
      vertex 2.89778 0.776457 4
      vertex 2.89778 0.776457 1
    endloop
  endfacet
  facet normal 0.382683 0.92388 -0
    outer loop
      vertex 1.22044 2.71387 1
      vertex 0.776457 2.89778 4
      vertex 1.22044 2.71387 4
    endloop
  endfacet
  facet normal 0.382683 0.92388 0
    outer loop
      vertex 0.776457 2.89778 4
      vertex 1.22044 2.71387 1
      vertex 0.776457 2.89778 1
    endloop
  endfacet
  facet normal -0.608761 0.793353 0
    outer loop
      vertex -1.74006 2.41387 1
      vertex -2.12132 2.12132 4
      vertex -1.74006 2.41387 4
    endloop
  endfacet
  facet normal -0.608761 0.793353 0
    outer loop
      vertex -2.12132 2.12132 4
      vertex -1.74006 2.41387 1
      vertex -2.12132 2.12132 1
    endloop
  endfacet
  facet normal -0.793353 0.608761 0
    outer loop
      vertex -2.41387 1.74006 1
      vertex -2.12132 2.12132 4
      vertex -2.12132 2.12132 1
    endloop
  endfacet
  facet normal -0.793353 0.608761 0
    outer loop
      vertex -2.12132 2.12132 4
      vertex -2.41387 1.74006 1
      vertex -2.41387 1.74006 4
    endloop
  endfacet
  facet normal -0.382683 0.92388 0
    outer loop
      vertex -0.776457 2.89778 1
      vertex -1.22044 2.71387 4
      vertex -0.776457 2.89778 4
    endloop
  endfacet
  facet normal -0.382683 0.92388 0
    outer loop
      vertex -1.22044 2.71387 4
      vertex -0.776457 2.89778 1
      vertex -1.22044 2.71387 1
    endloop
  endfacet
  facet normal 0.92388 -0.382683 0
    outer loop
      vertex 2.71387 -1.22044 4
      vertex 2.89778 -0.776457 1
      vertex 2.89778 -0.776457 4
    endloop
  endfacet
  facet normal 0.92388 -0.382683 0
    outer loop
      vertex 2.89778 -0.776457 1
      vertex 2.71387 -1.22044 4
      vertex 2.71387 -1.22044 1
    endloop
  endfacet
  facet normal -0.608762 -0.793353 0
    outer loop
      vertex -2.12132 -2.12132 1
      vertex -1.74006 -2.41387 4
      vertex -2.12132 -2.12132 4
    endloop
  endfacet
  facet normal -0.608762 -0.793353 -0
    outer loop
      vertex -1.74006 -2.41387 4
      vertex -2.12132 -2.12132 1
      vertex -1.74006 -2.41387 1
    endloop
  endfacet
  facet normal 0.793353 0.608761 0
    outer loop
      vertex 2.41387 1.74006 4
      vertex 2.12132 2.12132 1
      vertex 2.12132 2.12132 4
    endloop
  endfacet
  facet normal 0.793353 0.608761 0
    outer loop
      vertex 2.12132 2.12132 1
      vertex 2.41387 1.74006 4
      vertex 2.41387 1.74006 1
    endloop
  endfacet
  facet normal -0.92388 0.382683 0
    outer loop
      vertex -2.89778 0.776457 1
      vertex -2.71387 1.22044 4
      vertex -2.71387 1.22044 1
    endloop
  endfacet
  facet normal -0.92388 0.382683 0
    outer loop
      vertex -2.71387 1.22044 4
      vertex -2.89778 0.776457 1
      vertex -2.89778 0.776457 4
    endloop
  endfacet
  facet normal 0 0 1
    outer loop
      vertex -0.299999 2.9605 4
      vertex -0.776457 2.89778 4
      vertex -0.299999 2.7 4
    endloop
  endfacet
  facet normal 0 0 1
    outer loop
      vertex 2.18827 -1.60981 4
      vertex 0.849999 -0.849999 4
      vertex 1.60981 -2.18827 4
    endloop
  endfacet
  facet normal 0 0 1
    outer loop
      vertex 0.776457 2.89778 4
      vertex 1.09019 2.48827 4
      vertex 1.22044 2.71387 4
    endloop
  endfacet
  facet normal -0 0 1
    outer loop
      vertex 0.299999 2.7 4
      vertex 1.09019 2.48827 4
      vertex 0.776457 2.89778 4
    endloop
  endfacet
  facet normal 0 0 1
    outer loop
      vertex 0.299999 2.7 4
      vertex 0.776457 2.89778 4
      vertex 0.299999 2.9605 4
    endloop
  endfacet
  facet normal 0 0 1
    outer loop
      vertex 1.09019 2.48827 4
      vertex 0.299999 2.7 4
      vertex 0.849999 0.849999 4
    endloop
  endfacet
  facet normal -0 0 1
    outer loop
      vertex -0.299999 2.7 4
      vertex 0.849999 0.849999 4
      vertex 0.299999 2.7 4
    endloop
  endfacet
  facet normal 0 0 1
    outer loop
      vertex -1.09019 2.48827 4
      vertex -0.299999 2.7 4
      vertex -0.776457 2.89778 4
    endloop
  endfacet
  facet normal 0 -0 1
    outer loop
      vertex -0.849999 0.849999 4
      vertex -0.299999 2.7 4
      vertex -1.09019 2.48827 4
    endloop
  endfacet
  facet normal -0 0 1
    outer loop
      vertex -1.60981 2.18827 4
      vertex -0.849999 0.849999 4
      vertex -1.09019 2.48827 4
    endloop
  endfacet
  facet normal 0 0 1
    outer loop
      vertex -0.299999 2.7 4
      vertex -0.849999 0.849999 4
      vertex 0.849999 0.849999 4
    endloop
  endfacet
  facet normal 0 -0 1
    outer loop
      vertex -1.09019 2.48827 4
      vertex -0.776457 2.89778 4
      vertex -1.22044 2.71387 4
    endloop
  endfacet
  facet normal 0 0 1
    outer loop
      vertex 1.60981 2.18827 4
      vertex 2.18827 1.60981 4
      vertex 2.12132 2.12132 4
    endloop
  endfacet
  facet normal 0 0 1
    outer loop
      vertex 2.12132 2.12132 4
      vertex 2.18827 1.60981 4
      vertex 2.41387 1.74006 4
    endloop
  endfacet
  facet normal -0 0 1
    outer loop
      vertex 2.48827 1.09019 4
      vertex 2.89778 0.776457 4
      vertex 2.71387 1.22044 4
    endloop
  endfacet
  facet normal 0 0 1
    outer loop
      vertex 2.89778 0.776457 4
      vertex 2.7 0.299999 4
      vertex 2.9605 0.299999 4
    endloop
  endfacet
  facet normal -0 0 1
    outer loop
      vertex 0.849999 0.849999 4
      vertex 2.7 0.299999 4
      vertex 2.48827 1.09019 4
    endloop
  endfacet
  facet normal 0 0 1
    outer loop
      vertex 2.89778 0.776457 4
      vertex 2.48827 1.09019 4
      vertex 2.7 0.299999 4
    endloop
  endfacet
  facet normal -0 0 1
    outer loop
      vertex 2.7 -0.299999 4
      vertex 2.89778 -0.776457 4
      vertex 2.9605 -0.299999 4
    endloop
  endfacet
  facet normal 0 0 1
    outer loop
      vertex 2.48827 -1.09019 4
      vertex 2.89778 -0.776457 4
      vertex 2.7 -0.299999 4
    endloop
  endfacet
  facet normal 0 0 1
    outer loop
      vertex 2.7 0.299999 4
      vertex 0.849999 0.849999 4
      vertex 2.7 -0.299999 4
    endloop
  endfacet
  facet normal 0 0 1
    outer loop
      vertex 2.89778 -0.776457 4
      vertex 2.48827 -1.09019 4
      vertex 2.71387 -1.22044 4
    endloop
  endfacet
  facet normal 0 0 1
    outer loop
      vertex 0.849999 0.849999 4
      vertex 2.48827 1.09019 4
      vertex 2.18827 1.60981 4
    endloop
  endfacet
  facet normal 0 0 1
    outer loop
      vertex 0.849999 -0.849999 4
      vertex 2.7 -0.299999 4
      vertex 0.849999 0.849999 4
    endloop
  endfacet
  facet normal 0 0 1
    outer loop
      vertex 2.18827 -1.60981 4
      vertex 2.12132 -2.12132 4
      vertex 2.41387 -1.74006 4
    endloop
  endfacet
  facet normal 0 0 1
    outer loop
      vertex 0.849999 0.849999 4
      vertex 2.18827 1.60981 4
      vertex 1.60981 2.18827 4
    endloop
  endfacet
  facet normal -0 0 1
    outer loop
      vertex 1.60981 2.18827 4
      vertex 2.12132 2.12132 4
      vertex 1.74006 2.41387 4
    endloop
  endfacet
  facet normal 0 0 1
    outer loop
      vertex 2.7 -0.299999 4
      vertex 0.849999 -0.849999 4
      vertex 2.48827 -1.09019 4
    endloop
  endfacet
  facet normal 0 0 1
    outer loop
      vertex 2.18827 -1.60981 4
      vertex 1.60981 -2.18827 4
      vertex 2.12132 -2.12132 4
    endloop
  endfacet
  facet normal 0 0 1
    outer loop
      vertex 2.12132 -2.12132 4
      vertex 1.60981 -2.18827 4
      vertex 1.74006 -2.41387 4
    endloop
  endfacet
  facet normal 0 0 1
    outer loop
      vertex 0.849999 0.849999 4
      vertex 1.60981 2.18827 4
      vertex 1.09019 2.48827 4
    endloop
  endfacet
  facet normal 0 0 1
    outer loop
      vertex 2.48827 -1.09019 4
      vertex 0.849999 -0.849999 4
      vertex 2.18827 -1.60981 4
    endloop
  endfacet
  facet normal 0 0 1
    outer loop
      vertex 1.60981 -2.18827 4
      vertex 0.849999 -0.849999 4
      vertex 1.09019 -2.48827 4
    endloop
  endfacet
  facet normal 0 0 1
    outer loop
      vertex 1.09019 -2.48827 4
      vertex 0.776457 -2.89778 4
      vertex 1.22044 -2.71387 4
    endloop
  endfacet
  facet normal 0 0 1
    outer loop
      vertex 0.299999 -2.7 4
      vertex 1.09019 -2.48827 4
      vertex 0.849999 -0.849999 4
    endloop
  endfacet
  facet normal 0 0 1
    outer loop
      vertex 1.09019 -2.48827 4
      vertex 0.299999 -2.7 4
      vertex 0.776457 -2.89778 4
    endloop
  endfacet
  facet normal 0 0 1
    outer loop
      vertex 0.849999 -0.849999 4
      vertex -0.299999 -2.7 4
      vertex 0.299999 -2.7 4
    endloop
  endfacet
  facet normal 0 0 1
    outer loop
      vertex -0.299999 -2.7 4
      vertex -0.776457 -2.89778 4
      vertex -0.299999 -2.9605 4
    endloop
  endfacet
  facet normal -0 0 1
    outer loop
      vertex -0.849999 -0.849999 4
      vertex -0.299999 -2.7 4
      vertex 0.849999 -0.849999 4
    endloop
  endfacet
  facet normal 0 0 1
    outer loop
      vertex -0.299999 -2.7 4
      vertex -0.849999 -0.849999 4
      vertex -1.09019 -2.48827 4
    endloop
  endfacet
  facet normal -0 0 1
    outer loop
      vertex -2.18827 1.60981 4
      vertex -0.849999 0.849999 4
      vertex -1.60981 2.18827 4
    endloop
  endfacet
  facet normal 0 0 1
    outer loop
      vertex -0.299999 -2.7 4
      vertex -1.09019 -2.48827 4
      vertex -0.776457 -2.89778 4
    endloop
  endfacet
  facet normal 0 0 1
    outer loop
      vertex -0.776457 -2.89778 4
      vertex -1.09019 -2.48827 4
      vertex -1.22044 -2.71387 4
    endloop
  endfacet
  facet normal 0 0 1
    outer loop
      vertex 0.776457 -2.89778 4
      vertex 0.299999 -2.7 4
      vertex 0.299999 -2.9605 4
    endloop
  endfacet
  facet normal 0 0 1
    outer loop
      vertex -0.849999 0.849999 4
      vertex -2.7 0.299999 4
      vertex -0.849999 -0.849999 4
    endloop
  endfacet
  facet normal 0 0 1
    outer loop
      vertex -0.849999 -0.849999 4
      vertex -2.48827 -1.09019 4
      vertex -2.18827 -1.60981 4
    endloop
  endfacet
  facet normal -0 0 1
    outer loop
      vertex -2.7 -0.299999 4
      vertex -0.849999 -0.849999 4
      vertex -2.7 0.299999 4
    endloop
  endfacet
  facet normal 0 0 1
    outer loop
      vertex -2.89778 0.776457 4
      vertex -2.48827 1.09019 4
      vertex -2.71387 1.22044 4
    endloop
  endfacet
  facet normal 0 0 1
    outer loop
      vertex -2.48827 1.09019 4
      vertex -2.89778 0.776457 4
      vertex -2.7 0.299999 4
    endloop
  endfacet
  facet normal 0 0 1
    outer loop
      vertex -2.7 0.299999 4
      vertex -2.89778 0.776457 4
      vertex -2.9605 0.299999 4
    endloop
  endfacet
  facet normal -0 0 1
    outer loop
      vertex -2.48827 1.09019 4
      vertex -0.849999 0.849999 4
      vertex -2.18827 1.60981 4
    endloop
  endfacet
  facet normal 0 0 1
    outer loop
      vertex -0.849999 -0.849999 4
      vertex -1.60981 -2.18827 4
      vertex -1.09019 -2.48827 4
    endloop
  endfacet
  facet normal 0 0 1
    outer loop
      vertex -2.12132 2.12132 4
      vertex -1.60981 2.18827 4
      vertex -1.74006 2.41387 4
    endloop
  endfacet
  facet normal 0 0 1
    outer loop
      vertex -2.7 0.299999 4
      vertex -0.849999 0.849999 4
      vertex -2.48827 1.09019 4
    endloop
  endfacet
  facet normal 0 0 1
    outer loop
      vertex -1.60981 2.18827 4
      vertex -2.12132 2.12132 4
      vertex -2.18827 1.60981 4
    endloop
  endfacet
  facet normal 0 0 1
    outer loop
      vertex -0.849999 -0.849999 4
      vertex -2.18827 -1.60981 4
      vertex -1.60981 -2.18827 4
    endloop
  endfacet
  facet normal -0 -0 1
    outer loop
      vertex -2.12132 -2.12132 4
      vertex -1.60981 -2.18827 4
      vertex -2.18827 -1.60981 4
    endloop
  endfacet
  facet normal 0 -0 1
    outer loop
      vertex -2.18827 1.60981 4
      vertex -2.12132 2.12132 4
      vertex -2.41387 1.74006 4
    endloop
  endfacet
  facet normal 0 0 1
    outer loop
      vertex -1.60981 -2.18827 4
      vertex -2.12132 -2.12132 4
      vertex -1.74006 -2.41387 4
    endloop
  endfacet
  facet normal 0 0 1
    outer loop
      vertex -2.12132 -2.12132 4
      vertex -2.18827 -1.60981 4
      vertex -2.41387 -1.74006 4
    endloop
  endfacet
  facet normal 0 0 1
    outer loop
      vertex -0.849999 -0.849999 4
      vertex -2.7 -0.299999 4
      vertex -2.48827 -1.09019 4
    endloop
  endfacet
  facet normal -0 0 1
    outer loop
      vertex -2.89778 -0.776457 4
      vertex -2.48827 -1.09019 4
      vertex -2.7 -0.299999 4
    endloop
  endfacet
  facet normal 0 0 1
    outer loop
      vertex -2.48827 -1.09019 4
      vertex -2.89778 -0.776457 4
      vertex -2.71387 -1.22044 4
    endloop
  endfacet
  facet normal 0 -0 1
    outer loop
      vertex -2.89778 -0.776457 4
      vertex -2.7 -0.299999 4
      vertex -2.9605 -0.299999 4
    endloop
  endfacet
  facet normal -0.130527 0.991445 0
    outer loop
      vertex -0.299999 2.9605 1
      vertex -0.776457 2.89778 4
      vertex -0.299999 2.9605 4
    endloop
  endfacet
  facet normal -0.130527 0.991445 0
    outer loop
      vertex -0.776457 2.89778 4
      vertex -0.299999 2.9605 1
      vertex -0.776457 2.89778 1
    endloop
  endfacet
  facet normal 0.130527 -0.991445 0
    outer loop
      vertex 0.299999 -2.9605 1
      vertex 0.776457 -2.89778 4
      vertex 0.299999 -2.9605 4
    endloop
  endfacet
  facet normal 0.130527 -0.991445 0
    outer loop
      vertex 0.776457 -2.89778 4
      vertex 0.299999 -2.9605 1
      vertex 0.776457 -2.89778 1
    endloop
  endfacet
  facet normal 0.608762 -0.793353 0
    outer loop
      vertex 1.74006 -2.41387 1
      vertex 2.12132 -2.12132 4
      vertex 1.74006 -2.41387 4
    endloop
  endfacet
  facet normal 0.608762 -0.793353 0
    outer loop
      vertex 2.12132 -2.12132 4
      vertex 1.74006 -2.41387 1
      vertex 2.12132 -2.12132 1
    endloop
  endfacet
  facet normal -0.382683 -0.92388 0
    outer loop
      vertex -1.22044 -2.71387 1
      vertex -0.776457 -2.89778 4
      vertex -1.22044 -2.71387 4
    endloop
  endfacet
  facet normal -0.382683 -0.92388 -0
    outer loop
      vertex -0.776457 -2.89778 4
      vertex -1.22044 -2.71387 1
      vertex -0.776457 -2.89778 1
    endloop
  endfacet
  facet normal -0.793353 -0.608761 0
    outer loop
      vertex -2.12132 -2.12132 1
      vertex -2.41387 -1.74006 4
      vertex -2.41387 -1.74006 1
    endloop
  endfacet
  facet normal -0.793353 -0.608761 0
    outer loop
      vertex -2.41387 -1.74006 4
      vertex -2.12132 -2.12132 1
      vertex -2.12132 -2.12132 4
    endloop
  endfacet
  facet normal -0.991445 -0.130527 0
    outer loop
      vertex -2.89778 -0.776457 1
      vertex -2.9605 -0.299999 4
      vertex -2.9605 -0.299999 1
    endloop
  endfacet
  facet normal -0.991445 -0.130527 0
    outer loop
      vertex -2.9605 -0.299999 4
      vertex -2.89778 -0.776457 1
      vertex -2.89778 -0.776457 4
    endloop
  endfacet
  facet normal 0.991445 -0.130527 0
    outer loop
      vertex 2.89778 -0.776457 4
      vertex 2.9605 -0.299999 1
      vertex 2.9605 -0.299999 4
    endloop
  endfacet
  facet normal 0.991445 -0.130527 0
    outer loop
      vertex 2.9605 -0.299999 1
      vertex 2.89778 -0.776457 4
      vertex 2.89778 -0.776457 1
    endloop
  endfacet
  facet normal 0.382683 -0.92388 0
    outer loop
      vertex 0.776457 -2.89778 1
      vertex 1.22044 -2.71387 4
      vertex 0.776457 -2.89778 4
    endloop
  endfacet
  facet normal 0.382683 -0.92388 0
    outer loop
      vertex 1.22044 -2.71387 4
      vertex 0.776457 -2.89778 1
      vertex 1.22044 -2.71387 1
    endloop
  endfacet
  facet normal 0.793353 -0.608762 0
    outer loop
      vertex 2.12132 -2.12132 4
      vertex 2.41387 -1.74006 1
      vertex 2.41387 -1.74006 4
    endloop
  endfacet
  facet normal 0.793353 -0.608762 0
    outer loop
      vertex 2.41387 -1.74006 1
      vertex 2.12132 -2.12132 4
      vertex 2.12132 -2.12132 1
    endloop
  endfacet
  facet normal -0.130527 -0.991445 0
    outer loop
      vertex -0.776457 -2.89778 1
      vertex -0.299999 -2.9605 4
      vertex -0.776457 -2.89778 4
    endloop
  endfacet
  facet normal -0.130527 -0.991445 -0
    outer loop
      vertex -0.299999 -2.9605 4
      vertex -0.776457 -2.89778 1
      vertex -0.299999 -2.9605 1
    endloop
  endfacet
  facet normal -0.92388 -0.382683 0
    outer loop
      vertex -2.71387 -1.22044 1
      vertex -2.89778 -0.776457 4
      vertex -2.89778 -0.776457 1
    endloop
  endfacet
  facet normal -0.92388 -0.382683 0
    outer loop
      vertex -2.89778 -0.776457 4
      vertex -2.71387 -1.22044 1
      vertex -2.71387 -1.22044 4
    endloop
  endfacet
  facet normal 1 -0 0
    outer loop
      vertex -0.849999 -0.849999 4
      vertex -0.849999 0.849999 0.5
      vertex -0.849999 0.849999 4
    endloop
  endfacet
  facet normal 1 0 0
    outer loop
      vertex -0.849999 0.849999 0.5
      vertex -0.849999 -0.849999 4
      vertex -0.849999 -0.849999 0.5
    endloop
  endfacet
  facet normal -1 0 0
    outer loop
      vertex 0.849999 -0.849999 0.5
      vertex 0.849999 0.849999 4
      vertex 0.849999 0.849999 0.5
    endloop
  endfacet
  facet normal -1 -0 0
    outer loop
      vertex 0.849999 0.849999 4
      vertex 0.849999 -0.849999 0.5
      vertex 0.849999 -0.849999 4
    endloop
  endfacet
  facet normal 0 -1 0
    outer loop
      vertex -0.849999 0.849999 0.5
      vertex 0.849999 0.849999 4
      vertex -0.849999 0.849999 4
    endloop
  endfacet
  facet normal 0 -1 -0
    outer loop
      vertex 0.849999 0.849999 4
      vertex -0.849999 0.849999 0.5
      vertex 0.849999 0.849999 0.5
    endloop
  endfacet
  facet normal -0 0 1
    outer loop
      vertex -0.849999 0.849999 0.5
      vertex 0.849999 -0.849999 0.5
      vertex 0.849999 0.849999 0.5
    endloop
  endfacet
  facet normal 0 0 1
    outer loop
      vertex 0.849999 -0.849999 0.5
      vertex -0.849999 0.849999 0.5
      vertex -0.849999 -0.849999 0.5
    endloop
  endfacet
  facet normal 0 1 -0
    outer loop
      vertex 0.849999 -0.849999 0.5
      vertex -0.849999 -0.849999 4
      vertex 0.849999 -0.849999 4
    endloop
  endfacet
  facet normal 0 1 0
    outer loop
      vertex -0.849999 -0.849999 4
      vertex 0.849999 -0.849999 0.5
      vertex -0.849999 -0.849999 0.5
    endloop
  endfacet
endsolid OpenSCAD_Model
